<mxfile host="app.diagrams.net" modified="2023-03-20T13:47:10.903Z" agent="5.0 (Windows NT 10.0; Win64; x64) AppleWebKit/537.36 (KHTML, like Gecko) Chrome/109.0.0.0 Safari/537.36 OPR/95.0.0.0" etag="LhtZfJ9P-85-hFjfxVbm" version="21.0.8" type="github">
  <diagram id="O3coM_m_zm5Ynj2vjXyQ" name="Page-1">
    <mxGraphModel dx="1793" dy="3166" grid="0" gridSize="10" guides="1" tooltips="1" connect="1" arrows="1" fold="1" page="0" pageScale="1" pageWidth="850" pageHeight="1100" math="0" shadow="0">
      <root>
        <mxCell id="0" />
        <mxCell id="1" parent="0" />
        <mxCell id="7aCp0_iX8ROO9DkPUOGS-1" value="NHÂN VIÊN" style="rounded=0;whiteSpace=wrap;html=1;" parent="1" vertex="1">
          <mxGeometry x="150" y="360" width="120" height="60" as="geometry" />
        </mxCell>
        <mxCell id="7aCp0_iX8ROO9DkPUOGS-4" value="HỌ TÊN" style="ellipse;whiteSpace=wrap;html=1;" parent="1" vertex="1">
          <mxGeometry x="60" y="270" width="100" height="50" as="geometry" />
        </mxCell>
        <mxCell id="7aCp0_iX8ROO9DkPUOGS-5" value="MÃ SỐ&lt;span style=&quot;color: rgba(0, 0, 0, 0); font-family: monospace; font-size: 0px; text-align: start;&quot;&gt;%3CmxGraphModel%3E%3Croot%3E%3CmxCell%20id%3D%220%22%2F%3E%3CmxCell%20id%3D%221%22%20parent%3D%220%22%2F%3E%3CmxCell%20id%3D%222%22%20value%3D%22H%E1%BB%8C%20T%C3%8AN%22%20style%3D%22ellipse%3BwhiteSpace%3Dwrap%3Bhtml%3D1%3B%22%20vertex%3D%221%22%20parent%3D%221%22%3E%3CmxGeometry%20x%3D%2260%22%20y%3D%22270%22%20width%3D%22100%22%20height%3D%2250%22%20as%3D%22geometry%22%2F%3E%3C%2FmxCell%3E%3C%2Froot%3E%3C%2FmxGraphModel%3E&lt;/span&gt;" style="ellipse;whiteSpace=wrap;html=1;" parent="1" vertex="1">
          <mxGeometry x="160" y="230" width="100" height="50" as="geometry" />
        </mxCell>
        <mxCell id="7aCp0_iX8ROO9DkPUOGS-6" value="NGÀY SINH" style="ellipse;whiteSpace=wrap;html=1;" parent="1" vertex="1">
          <mxGeometry x="17" y="338" width="100" height="50" as="geometry" />
        </mxCell>
        <mxCell id="7aCp0_iX8ROO9DkPUOGS-7" value="HỆ SỐ LƯƠNG" style="ellipse;whiteSpace=wrap;html=1;" parent="1" vertex="1">
          <mxGeometry x="26" y="409" width="100" height="50" as="geometry" />
        </mxCell>
        <mxCell id="7aCp0_iX8ROO9DkPUOGS-8" value="GIỚI TÍNH" style="ellipse;whiteSpace=wrap;html=1;" parent="1" vertex="1">
          <mxGeometry x="270" y="220" width="100" height="50" as="geometry" />
        </mxCell>
        <mxCell id="7aCp0_iX8ROO9DkPUOGS-9" value="" style="endArrow=none;html=1;rounded=0;entryX=0.71;entryY=0.94;entryDx=0;entryDy=0;entryPerimeter=0;exitX=0.25;exitY=0;exitDx=0;exitDy=0;" parent="1" source="7aCp0_iX8ROO9DkPUOGS-1" target="7aCp0_iX8ROO9DkPUOGS-4" edge="1">
          <mxGeometry width="50" height="50" relative="1" as="geometry">
            <mxPoint x="200" y="420" as="sourcePoint" />
            <mxPoint x="250" y="370" as="targetPoint" />
          </mxGeometry>
        </mxCell>
        <mxCell id="7aCp0_iX8ROO9DkPUOGS-10" value="" style="endArrow=none;html=1;rounded=0;entryX=0.5;entryY=1;entryDx=0;entryDy=0;" parent="1" target="7aCp0_iX8ROO9DkPUOGS-5" edge="1">
          <mxGeometry width="50" height="50" relative="1" as="geometry">
            <mxPoint x="200" y="360" as="sourcePoint" />
            <mxPoint x="141" y="327" as="targetPoint" />
          </mxGeometry>
        </mxCell>
        <mxCell id="7aCp0_iX8ROO9DkPUOGS-11" value="" style="endArrow=none;html=1;rounded=0;" parent="1" target="7aCp0_iX8ROO9DkPUOGS-8" edge="1">
          <mxGeometry width="50" height="50" relative="1" as="geometry">
            <mxPoint x="220" y="360" as="sourcePoint" />
            <mxPoint x="290" y="260" as="targetPoint" />
          </mxGeometry>
        </mxCell>
        <mxCell id="7aCp0_iX8ROO9DkPUOGS-12" value="" style="endArrow=none;html=1;rounded=0;entryX=1;entryY=0.5;entryDx=0;entryDy=0;exitX=0;exitY=0.25;exitDx=0;exitDy=0;" parent="1" source="7aCp0_iX8ROO9DkPUOGS-1" target="7aCp0_iX8ROO9DkPUOGS-6" edge="1">
          <mxGeometry width="50" height="50" relative="1" as="geometry">
            <mxPoint x="230" y="370" as="sourcePoint" />
            <mxPoint x="298" y="280" as="targetPoint" />
          </mxGeometry>
        </mxCell>
        <mxCell id="7aCp0_iX8ROO9DkPUOGS-13" value="" style="endArrow=none;html=1;rounded=0;entryX=1;entryY=0.5;entryDx=0;entryDy=0;exitX=0;exitY=0.65;exitDx=0;exitDy=0;exitPerimeter=0;" parent="1" source="7aCp0_iX8ROO9DkPUOGS-1" target="7aCp0_iX8ROO9DkPUOGS-7" edge="1">
          <mxGeometry width="50" height="50" relative="1" as="geometry">
            <mxPoint x="170" y="385" as="sourcePoint" />
            <mxPoint x="130" y="385" as="targetPoint" />
          </mxGeometry>
        </mxCell>
        <mxCell id="7aCp0_iX8ROO9DkPUOGS-19" value="NGÀY BỔ NHIỆM" style="ellipse;whiteSpace=wrap;html=1;" parent="1" vertex="1">
          <mxGeometry x="380" y="270" width="110" height="50" as="geometry" />
        </mxCell>
        <mxCell id="7aCp0_iX8ROO9DkPUOGS-20" value="" style="endArrow=none;html=1;rounded=0;entryX=0.5;entryY=1;entryDx=0;entryDy=0;exitX=0.5;exitY=0;exitDx=0;exitDy=0;" parent="1" target="7aCp0_iX8ROO9DkPUOGS-19" edge="1">
          <mxGeometry width="50" height="50" relative="1" as="geometry">
            <mxPoint x="425" y="359.9999999999999" as="sourcePoint" />
            <mxPoint x="420" y="370" as="targetPoint" />
          </mxGeometry>
        </mxCell>
        <mxCell id="7aCp0_iX8ROO9DkPUOGS-21" value="ĐƠN VỊ" style="rounded=0;whiteSpace=wrap;html=1;" parent="1" vertex="1">
          <mxGeometry x="590" y="360" width="120" height="60" as="geometry" />
        </mxCell>
        <mxCell id="7aCp0_iX8ROO9DkPUOGS-23" value="Quản lý" style="rhombus;whiteSpace=wrap;html=1;" parent="1" vertex="1">
          <mxGeometry x="385" y="358" width="80" height="60" as="geometry" />
        </mxCell>
        <mxCell id="7aCp0_iX8ROO9DkPUOGS-25" value="" style="endArrow=none;html=1;rounded=0;entryX=0;entryY=0.5;entryDx=0;entryDy=0;exitX=1;exitY=0.5;exitDx=0;exitDy=0;" parent="1" source="7aCp0_iX8ROO9DkPUOGS-23" target="7aCp0_iX8ROO9DkPUOGS-21" edge="1">
          <mxGeometry width="50" height="50" relative="1" as="geometry">
            <mxPoint x="590" y="420" as="sourcePoint" />
            <mxPoint x="640" y="370" as="targetPoint" />
            <Array as="points" />
          </mxGeometry>
        </mxCell>
        <mxCell id="7aCp0_iX8ROO9DkPUOGS-26" value="TÊN" style="ellipse;whiteSpace=wrap;html=1;" parent="1" vertex="1">
          <mxGeometry x="560" y="270" width="90" height="50" as="geometry" />
        </mxCell>
        <mxCell id="7aCp0_iX8ROO9DkPUOGS-27" value="" style="endArrow=none;html=1;rounded=0;entryX=0.5;entryY=1;entryDx=0;entryDy=0;exitX=0.2;exitY=-0.017;exitDx=0;exitDy=0;exitPerimeter=0;" parent="1" source="7aCp0_iX8ROO9DkPUOGS-21" target="7aCp0_iX8ROO9DkPUOGS-26" edge="1">
          <mxGeometry width="50" height="50" relative="1" as="geometry">
            <mxPoint x="580" y="420" as="sourcePoint" />
            <mxPoint x="630" y="370" as="targetPoint" />
          </mxGeometry>
        </mxCell>
        <mxCell id="7aCp0_iX8ROO9DkPUOGS-28" value="SỐ HIỆU" style="ellipse;whiteSpace=wrap;html=1;" parent="1" vertex="1">
          <mxGeometry x="660" y="270" width="90" height="50" as="geometry" />
        </mxCell>
        <mxCell id="7aCp0_iX8ROO9DkPUOGS-29" value="" style="endArrow=none;html=1;rounded=0;entryX=0.433;entryY=1;entryDx=0;entryDy=0;entryPerimeter=0;exitX=0.75;exitY=0;exitDx=0;exitDy=0;" parent="1" source="7aCp0_iX8ROO9DkPUOGS-21" target="7aCp0_iX8ROO9DkPUOGS-28" edge="1">
          <mxGeometry width="50" height="50" relative="1" as="geometry">
            <mxPoint x="580" y="420" as="sourcePoint" />
            <mxPoint x="630" y="370" as="targetPoint" />
          </mxGeometry>
        </mxCell>
        <mxCell id="7aCp0_iX8ROO9DkPUOGS-31" value="PHÒNG" style="rounded=0;whiteSpace=wrap;html=1;" parent="1" vertex="1">
          <mxGeometry x="810" y="360" width="120" height="60" as="geometry" />
        </mxCell>
        <mxCell id="7aCp0_iX8ROO9DkPUOGS-32" value="Thuộc" style="rhombus;whiteSpace=wrap;html=1;" parent="1" vertex="1">
          <mxGeometry x="730" y="470" width="90" height="60" as="geometry" />
        </mxCell>
        <mxCell id="7aCp0_iX8ROO9DkPUOGS-33" value="" style="endArrow=none;html=1;rounded=0;entryX=0.75;entryY=1;entryDx=0;entryDy=0;exitX=0;exitY=0.5;exitDx=0;exitDy=0;" parent="1" source="7aCp0_iX8ROO9DkPUOGS-32" target="7aCp0_iX8ROO9DkPUOGS-21" edge="1">
          <mxGeometry width="50" height="50" relative="1" as="geometry">
            <mxPoint x="660" y="350" as="sourcePoint" />
            <mxPoint x="710" y="300" as="targetPoint" />
            <Array as="points">
              <mxPoint x="680" y="500" />
            </Array>
          </mxGeometry>
        </mxCell>
        <mxCell id="7aCp0_iX8ROO9DkPUOGS-34" value="" style="endArrow=none;html=1;rounded=0;entryX=0.5;entryY=1;entryDx=0;entryDy=0;exitX=1;exitY=0.5;exitDx=0;exitDy=0;" parent="1" source="7aCp0_iX8ROO9DkPUOGS-32" target="7aCp0_iX8ROO9DkPUOGS-31" edge="1">
          <mxGeometry width="50" height="50" relative="1" as="geometry">
            <mxPoint x="740" y="510" as="sourcePoint" />
            <mxPoint x="690" y="430" as="targetPoint" />
            <Array as="points">
              <mxPoint x="870" y="500" />
            </Array>
          </mxGeometry>
        </mxCell>
        <mxCell id="7aCp0_iX8ROO9DkPUOGS-35" value="Phụ trách" style="rhombus;whiteSpace=wrap;html=1;" parent="1" vertex="1">
          <mxGeometry x="590" y="570" width="120" height="50" as="geometry" />
        </mxCell>
        <mxCell id="7aCp0_iX8ROO9DkPUOGS-36" value="" style="endArrow=none;html=1;rounded=0;entryX=0.5;entryY=1;entryDx=0;entryDy=0;" parent="1" source="7aCp0_iX8ROO9DkPUOGS-35" target="7aCp0_iX8ROO9DkPUOGS-21" edge="1">
          <mxGeometry width="50" height="50" relative="1" as="geometry">
            <mxPoint x="680" y="350" as="sourcePoint" />
            <mxPoint x="730" y="300" as="targetPoint" />
          </mxGeometry>
        </mxCell>
        <mxCell id="7aCp0_iX8ROO9DkPUOGS-37" value="DỰ ÁN" style="rounded=0;whiteSpace=wrap;html=1;" parent="1" vertex="1">
          <mxGeometry x="595" y="700" width="110" height="50" as="geometry" />
        </mxCell>
        <mxCell id="7aCp0_iX8ROO9DkPUOGS-38" value="" style="endArrow=none;html=1;rounded=0;entryX=0.5;entryY=1;entryDx=0;entryDy=0;" parent="1" source="7aCp0_iX8ROO9DkPUOGS-37" target="7aCp0_iX8ROO9DkPUOGS-35" edge="1">
          <mxGeometry width="50" height="50" relative="1" as="geometry">
            <mxPoint x="680" y="550" as="sourcePoint" />
            <mxPoint x="730" y="500" as="targetPoint" />
          </mxGeometry>
        </mxCell>
        <mxCell id="7aCp0_iX8ROO9DkPUOGS-39" value="TÊN" style="ellipse;whiteSpace=wrap;html=1;" parent="1" vertex="1">
          <mxGeometry x="730" y="650" width="90" height="50" as="geometry" />
        </mxCell>
        <mxCell id="7aCp0_iX8ROO9DkPUOGS-40" value="SỐ HIỆU" style="ellipse;whiteSpace=wrap;html=1;" parent="1" vertex="1">
          <mxGeometry x="740" y="710" width="90" height="50" as="geometry" />
        </mxCell>
        <mxCell id="7aCp0_iX8ROO9DkPUOGS-41" value="" style="endArrow=none;html=1;rounded=0;entryX=0.011;entryY=0.72;entryDx=0;entryDy=0;entryPerimeter=0;exitX=0.75;exitY=0;exitDx=0;exitDy=0;" parent="1" source="7aCp0_iX8ROO9DkPUOGS-37" target="7aCp0_iX8ROO9DkPUOGS-39" edge="1">
          <mxGeometry width="50" height="50" relative="1" as="geometry">
            <mxPoint x="680" y="550" as="sourcePoint" />
            <mxPoint x="730" y="500" as="targetPoint" />
          </mxGeometry>
        </mxCell>
        <mxCell id="7aCp0_iX8ROO9DkPUOGS-42" value="" style="endArrow=none;html=1;rounded=0;entryX=0;entryY=0.5;entryDx=0;entryDy=0;exitX=1;exitY=0.5;exitDx=0;exitDy=0;" parent="1" source="7aCp0_iX8ROO9DkPUOGS-37" target="7aCp0_iX8ROO9DkPUOGS-40" edge="1">
          <mxGeometry width="50" height="50" relative="1" as="geometry">
            <mxPoint x="687.5" y="710" as="sourcePoint" />
            <mxPoint x="740.99" y="696" as="targetPoint" />
          </mxGeometry>
        </mxCell>
        <mxCell id="7aCp0_iX8ROO9DkPUOGS-43" value="Tham gia" style="rhombus;whiteSpace=wrap;html=1;" parent="1" vertex="1">
          <mxGeometry x="294" y="620" width="80" height="60" as="geometry" />
        </mxCell>
        <mxCell id="7aCp0_iX8ROO9DkPUOGS-44" value="" style="endArrow=none;html=1;rounded=0;exitX=0;exitY=0.5;exitDx=0;exitDy=0;entryX=0.35;entryY=1.025;entryDx=0;entryDy=0;entryPerimeter=0;" parent="1" source="7aCp0_iX8ROO9DkPUOGS-43" target="7aCp0_iX8ROO9DkPUOGS-1" edge="1">
          <mxGeometry width="50" height="50" relative="1" as="geometry">
            <mxPoint x="240" y="550" as="sourcePoint" />
            <mxPoint x="290" y="500" as="targetPoint" />
            <Array as="points">
              <mxPoint x="192" y="650" />
            </Array>
          </mxGeometry>
        </mxCell>
        <mxCell id="7aCp0_iX8ROO9DkPUOGS-46" value="Thuộc" style="rhombus;whiteSpace=wrap;html=1;" parent="1" vertex="1">
          <mxGeometry x="380" y="437" width="90" height="60" as="geometry" />
        </mxCell>
        <mxCell id="7aCp0_iX8ROO9DkPUOGS-47" value="" style="endArrow=none;html=1;rounded=0;exitX=0;exitY=0.5;exitDx=0;exitDy=0;entryX=0.821;entryY=1.005;entryDx=0;entryDy=0;entryPerimeter=0;" parent="1" source="7aCp0_iX8ROO9DkPUOGS-46" target="7aCp0_iX8ROO9DkPUOGS-1" edge="1">
          <mxGeometry width="50" height="50" relative="1" as="geometry">
            <mxPoint x="340" y="550" as="sourcePoint" />
            <mxPoint x="230" y="420" as="targetPoint" />
            <Array as="points">
              <mxPoint x="249" y="467" />
            </Array>
          </mxGeometry>
        </mxCell>
        <mxCell id="7aCp0_iX8ROO9DkPUOGS-48" value="" style="endArrow=none;html=1;rounded=0;entryX=0.392;entryY=1;entryDx=0;entryDy=0;entryPerimeter=0;exitX=1;exitY=0.5;exitDx=0;exitDy=0;" parent="1" source="7aCp0_iX8ROO9DkPUOGS-46" target="7aCp0_iX8ROO9DkPUOGS-21" edge="1">
          <mxGeometry width="50" height="50" relative="1" as="geometry">
            <mxPoint x="540" y="550" as="sourcePoint" />
            <mxPoint x="590" y="500" as="targetPoint" />
            <Array as="points">
              <mxPoint x="637" y="467" />
            </Array>
          </mxGeometry>
        </mxCell>
        <mxCell id="7aCp0_iX8ROO9DkPUOGS-51" value="" style="endArrow=none;html=1;rounded=0;entryX=0;entryY=0.5;entryDx=0;entryDy=0;exitX=1;exitY=0.5;exitDx=0;exitDy=0;" parent="1" source="7aCp0_iX8ROO9DkPUOGS-43" target="7aCp0_iX8ROO9DkPUOGS-37" edge="1">
          <mxGeometry width="50" height="50" relative="1" as="geometry">
            <mxPoint x="412" y="724.7" as="sourcePoint" />
            <mxPoint x="452" y="724.7" as="targetPoint" />
          </mxGeometry>
        </mxCell>
        <mxCell id="7aCp0_iX8ROO9DkPUOGS-54" value="SỐ GIỜ" style="ellipse;whiteSpace=wrap;html=1;" parent="1" vertex="1">
          <mxGeometry x="356" y="690" width="80" height="50" as="geometry" />
        </mxCell>
        <mxCell id="7aCp0_iX8ROO9DkPUOGS-56" value="" style="endArrow=none;html=1;rounded=0;exitX=0.288;exitY=0.08;exitDx=0;exitDy=0;exitPerimeter=0;entryX=1;entryY=1;entryDx=0;entryDy=0;" parent="1" source="7aCp0_iX8ROO9DkPUOGS-54" target="7aCp0_iX8ROO9DkPUOGS-43" edge="1">
          <mxGeometry width="50" height="50" relative="1" as="geometry">
            <mxPoint x="344" y="790" as="sourcePoint" />
            <mxPoint x="390" y="750" as="targetPoint" />
          </mxGeometry>
        </mxCell>
        <mxCell id="7aCp0_iX8ROO9DkPUOGS-57" value="THÂN NHÂN" style="rounded=0;whiteSpace=wrap;html=1;" parent="1" vertex="1">
          <mxGeometry x="40" y="780" width="120" height="60" as="geometry" />
        </mxCell>
        <mxCell id="7aCp0_iX8ROO9DkPUOGS-58" value="Có" style="rhombus;whiteSpace=wrap;html=1;" parent="1" vertex="1">
          <mxGeometry x="60" y="540" width="80" height="50" as="geometry" />
        </mxCell>
        <mxCell id="7aCp0_iX8ROO9DkPUOGS-59" value="" style="endArrow=none;html=1;rounded=0;entryX=0.25;entryY=1;entryDx=0;entryDy=0;exitX=0.5;exitY=0;exitDx=0;exitDy=0;" parent="1" source="7aCp0_iX8ROO9DkPUOGS-58" target="7aCp0_iX8ROO9DkPUOGS-1" edge="1">
          <mxGeometry width="50" height="50" relative="1" as="geometry">
            <mxPoint x="30" y="550" as="sourcePoint" />
            <mxPoint x="80" y="500" as="targetPoint" />
          </mxGeometry>
        </mxCell>
        <mxCell id="7aCp0_iX8ROO9DkPUOGS-60" value="" style="endArrow=none;html=1;rounded=0;entryX=0.5;entryY=1;entryDx=0;entryDy=0;" parent="1" source="7aCp0_iX8ROO9DkPUOGS-57" target="7aCp0_iX8ROO9DkPUOGS-58" edge="1">
          <mxGeometry width="50" height="50" relative="1" as="geometry">
            <mxPoint x="30" y="550" as="sourcePoint" />
            <mxPoint x="80" y="500" as="targetPoint" />
          </mxGeometry>
        </mxCell>
        <mxCell id="7aCp0_iX8ROO9DkPUOGS-62" value="HỌ TÊN" style="ellipse;whiteSpace=wrap;html=1;" parent="1" vertex="1">
          <mxGeometry x="-80" y="750" width="100" height="50" as="geometry" />
        </mxCell>
        <mxCell id="7aCp0_iX8ROO9DkPUOGS-63" value="NGÀY SINH" style="ellipse;whiteSpace=wrap;html=1;" parent="1" vertex="1">
          <mxGeometry x="-110" y="820" width="100" height="50" as="geometry" />
        </mxCell>
        <mxCell id="7aCp0_iX8ROO9DkPUOGS-64" value="GIỚI TÍNH" style="ellipse;whiteSpace=wrap;html=1;" parent="1" vertex="1">
          <mxGeometry x="-20" y="690" width="100" height="50" as="geometry" />
        </mxCell>
        <mxCell id="7aCp0_iX8ROO9DkPUOGS-65" value="MỐI LIÊN HỆ VỚI NHÂN VIÊN" style="ellipse;whiteSpace=wrap;html=1;" parent="1" vertex="1">
          <mxGeometry x="-20" y="870" width="120" height="70" as="geometry" />
        </mxCell>
        <mxCell id="7aCp0_iX8ROO9DkPUOGS-66" value="" style="endArrow=none;html=1;rounded=0;entryX=0.317;entryY=-0.017;entryDx=0;entryDy=0;entryPerimeter=0;exitX=1;exitY=1;exitDx=0;exitDy=0;" parent="1" source="7aCp0_iX8ROO9DkPUOGS-64" target="7aCp0_iX8ROO9DkPUOGS-57" edge="1">
          <mxGeometry width="50" height="50" relative="1" as="geometry">
            <mxPoint x="90" y="640" as="sourcePoint" />
            <mxPoint x="140" y="590" as="targetPoint" />
          </mxGeometry>
        </mxCell>
        <mxCell id="7aCp0_iX8ROO9DkPUOGS-67" value="" style="endArrow=none;html=1;rounded=0;entryX=0;entryY=0.5;entryDx=0;entryDy=0;exitX=1;exitY=0.5;exitDx=0;exitDy=0;" parent="1" source="7aCp0_iX8ROO9DkPUOGS-62" target="7aCp0_iX8ROO9DkPUOGS-57" edge="1">
          <mxGeometry width="50" height="50" relative="1" as="geometry">
            <mxPoint x="75.35533905932743" y="742.6776695296637" as="sourcePoint" />
            <mxPoint x="88.03999999999996" y="788.98" as="targetPoint" />
          </mxGeometry>
        </mxCell>
        <mxCell id="7aCp0_iX8ROO9DkPUOGS-68" value="" style="endArrow=none;html=1;rounded=0;entryX=0;entryY=1;entryDx=0;entryDy=0;exitX=1;exitY=0.5;exitDx=0;exitDy=0;" parent="1" source="7aCp0_iX8ROO9DkPUOGS-63" target="7aCp0_iX8ROO9DkPUOGS-57" edge="1">
          <mxGeometry width="50" height="50" relative="1" as="geometry">
            <mxPoint x="30" y="785" as="sourcePoint" />
            <mxPoint x="50" y="820" as="targetPoint" />
          </mxGeometry>
        </mxCell>
        <mxCell id="7aCp0_iX8ROO9DkPUOGS-69" value="" style="endArrow=none;html=1;rounded=0;entryX=0.25;entryY=1;entryDx=0;entryDy=0;exitX=0.5;exitY=0;exitDx=0;exitDy=0;" parent="1" source="7aCp0_iX8ROO9DkPUOGS-65" target="7aCp0_iX8ROO9DkPUOGS-57" edge="1">
          <mxGeometry width="50" height="50" relative="1" as="geometry">
            <mxPoint y="855" as="sourcePoint" />
            <mxPoint x="50" y="850" as="targetPoint" />
          </mxGeometry>
        </mxCell>
        <mxCell id="7aCp0_iX8ROO9DkPUOGS-70" value="ĐỊA CHỈ" style="ellipse;whiteSpace=wrap;html=1;" parent="1" vertex="1">
          <mxGeometry x="830" y="270" width="90" height="50" as="geometry" />
        </mxCell>
        <mxCell id="7aCp0_iX8ROO9DkPUOGS-71" value="" style="endArrow=none;html=1;rounded=0;entryX=0.5;entryY=1;entryDx=0;entryDy=0;exitX=0.5;exitY=0;exitDx=0;exitDy=0;" parent="1" source="7aCp0_iX8ROO9DkPUOGS-31" target="7aCp0_iX8ROO9DkPUOGS-70" edge="1">
          <mxGeometry width="50" height="50" relative="1" as="geometry">
            <mxPoint x="580" y="510" as="sourcePoint" />
            <mxPoint x="630" y="460" as="targetPoint" />
          </mxGeometry>
        </mxCell>
        <mxCell id="7aCp0_iX8ROO9DkPUOGS-72" value="Quản lý" style="rhombus;whiteSpace=wrap;html=1;" parent="1" vertex="1">
          <mxGeometry x="312" y="530" width="80" height="43" as="geometry" />
        </mxCell>
        <mxCell id="7aCp0_iX8ROO9DkPUOGS-73" value="" style="endArrow=none;html=1;rounded=0;entryX=0.566;entryY=1.005;entryDx=0;entryDy=0;entryPerimeter=0;exitX=0;exitY=0.5;exitDx=0;exitDy=0;" parent="1" source="7aCp0_iX8ROO9DkPUOGS-72" target="7aCp0_iX8ROO9DkPUOGS-1" edge="1">
          <mxGeometry width="50" height="50" relative="1" as="geometry">
            <mxPoint x="486" y="616" as="sourcePoint" />
            <mxPoint x="536" y="566" as="targetPoint" />
            <Array as="points">
              <mxPoint x="218" y="552" />
            </Array>
          </mxGeometry>
        </mxCell>
        <mxCell id="7aCp0_iX8ROO9DkPUOGS-74" value="" style="endArrow=none;html=1;rounded=0;entryX=0.75;entryY=1;entryDx=0;entryDy=0;exitX=0.5;exitY=0;exitDx=0;exitDy=0;" parent="1" source="7aCp0_iX8ROO9DkPUOGS-72" target="7aCp0_iX8ROO9DkPUOGS-1" edge="1">
          <mxGeometry width="50" height="50" relative="1" as="geometry">
            <mxPoint x="200" y="613" as="sourcePoint" />
            <mxPoint x="536" y="566" as="targetPoint" />
            <Array as="points">
              <mxPoint x="240" y="530" />
            </Array>
          </mxGeometry>
        </mxCell>
        <mxCell id="7aCp0_iX8ROO9DkPUOGS-79" value="" style="endArrow=none;html=1;rounded=0;exitX=1;exitY=0.5;exitDx=0;exitDy=0;entryX=0;entryY=0.5;entryDx=0;entryDy=0;" parent="1" source="7aCp0_iX8ROO9DkPUOGS-1" target="7aCp0_iX8ROO9DkPUOGS-23" edge="1">
          <mxGeometry width="50" height="50" relative="1" as="geometry">
            <mxPoint x="370" y="367" as="sourcePoint" />
            <mxPoint x="420" y="317" as="targetPoint" />
          </mxGeometry>
        </mxCell>
        <mxCell id="7aCp0_iX8ROO9DkPUOGS-81" value="NHÂN VIÊN" style="rounded=0;whiteSpace=wrap;html=1;" parent="1" vertex="1">
          <mxGeometry x="470" y="1500" width="120" height="60" as="geometry" />
        </mxCell>
        <mxCell id="7aCp0_iX8ROO9DkPUOGS-82" value="KỸ SƯ" style="rounded=0;whiteSpace=wrap;html=1;" parent="1" vertex="1">
          <mxGeometry x="160" y="1683" width="120" height="60" as="geometry" />
        </mxCell>
        <mxCell id="7aCp0_iX8ROO9DkPUOGS-83" value="LÁI XE" style="rounded=0;whiteSpace=wrap;html=1;" parent="1" vertex="1">
          <mxGeometry x="292" y="1683" width="120" height="60" as="geometry" />
        </mxCell>
        <mxCell id="7aCp0_iX8ROO9DkPUOGS-84" value="THƯ KÝ" style="rounded=0;whiteSpace=wrap;html=1;" parent="1" vertex="1">
          <mxGeometry x="424" y="1683" width="120" height="60" as="geometry" />
        </mxCell>
        <mxCell id="7aCp0_iX8ROO9DkPUOGS-85" value="NHÂN VIÊN TOÀN THỜI GIAN" style="rounded=0;whiteSpace=wrap;html=1;" parent="1" vertex="1">
          <mxGeometry x="695" y="1683" width="120" height="60" as="geometry" />
        </mxCell>
        <mxCell id="7aCp0_iX8ROO9DkPUOGS-86" value="NHÂN VIÊN KINH NGHIỆM CAO" style="rounded=0;whiteSpace=wrap;html=1;" parent="1" vertex="1">
          <mxGeometry x="830" y="1683" width="120" height="60" as="geometry" />
        </mxCell>
        <mxCell id="7aCp0_iX8ROO9DkPUOGS-87" value="d" style="ellipse;whiteSpace=wrap;html=1;aspect=fixed;" parent="1" vertex="1">
          <mxGeometry x="427" y="1598" width="35" height="35" as="geometry" />
        </mxCell>
        <mxCell id="7aCp0_iX8ROO9DkPUOGS-88" value="" style="endArrow=none;html=1;rounded=0;entryX=0.25;entryY=1;entryDx=0;entryDy=0;" parent="1" source="7aCp0_iX8ROO9DkPUOGS-87" target="7aCp0_iX8ROO9DkPUOGS-81" edge="1">
          <mxGeometry width="50" height="50" relative="1" as="geometry">
            <mxPoint x="461" y="1668" as="sourcePoint" />
            <mxPoint x="511" y="1618" as="targetPoint" />
          </mxGeometry>
        </mxCell>
        <mxCell id="7aCp0_iX8ROO9DkPUOGS-89" value="U" style="endArrow=none;html=1;rounded=0;entryX=0;entryY=0.5;entryDx=0;entryDy=0;exitX=0.75;exitY=0;exitDx=0;exitDy=0;" parent="1" source="7aCp0_iX8ROO9DkPUOGS-82" target="7aCp0_iX8ROO9DkPUOGS-87" edge="1">
          <mxGeometry width="50" height="50" relative="1" as="geometry">
            <mxPoint x="466.87436867077236" y="1613.1256313292279" as="sourcePoint" />
            <mxPoint x="510" y="1570" as="targetPoint" />
          </mxGeometry>
        </mxCell>
        <mxCell id="7aCp0_iX8ROO9DkPUOGS-90" value="U" style="endArrow=none;html=1;rounded=0;entryX=0;entryY=1;entryDx=0;entryDy=0;exitX=0.552;exitY=0.016;exitDx=0;exitDy=0;exitPerimeter=0;" parent="1" source="7aCp0_iX8ROO9DkPUOGS-83" target="7aCp0_iX8ROO9DkPUOGS-87" edge="1">
          <mxGeometry width="50" height="50" relative="1" as="geometry">
            <mxPoint x="260" y="1693" as="sourcePoint" />
            <mxPoint x="436.99999999999704" y="1625.5" as="targetPoint" />
          </mxGeometry>
        </mxCell>
        <mxCell id="7aCp0_iX8ROO9DkPUOGS-91" value="U" style="endArrow=none;html=1;rounded=0;entryX=1;entryY=1;entryDx=0;entryDy=0;" parent="1" source="7aCp0_iX8ROO9DkPUOGS-84" target="7aCp0_iX8ROO9DkPUOGS-87" edge="1">
          <mxGeometry width="50" height="50" relative="1" as="geometry">
            <mxPoint x="368.24" y="1693.96" as="sourcePoint" />
            <mxPoint x="442.1256313292279" y="1637.8743686707721" as="targetPoint" />
          </mxGeometry>
        </mxCell>
        <mxCell id="7aCp0_iX8ROO9DkPUOGS-94" value="O" style="ellipse;whiteSpace=wrap;html=1;aspect=fixed;" parent="1" vertex="1">
          <mxGeometry x="742" y="1594" width="35" height="35" as="geometry" />
        </mxCell>
        <mxCell id="7aCp0_iX8ROO9DkPUOGS-95" value="" style="endArrow=none;html=1;rounded=0;entryX=1;entryY=0.75;entryDx=0;entryDy=0;exitX=0;exitY=0;exitDx=0;exitDy=0;" parent="1" source="7aCp0_iX8ROO9DkPUOGS-94" target="7aCp0_iX8ROO9DkPUOGS-81" edge="1">
          <mxGeometry width="50" height="50" relative="1" as="geometry">
            <mxPoint x="647" y="1601" as="sourcePoint" />
            <mxPoint x="697" y="1551" as="targetPoint" />
          </mxGeometry>
        </mxCell>
        <mxCell id="7aCp0_iX8ROO9DkPUOGS-97" value="U" style="endArrow=none;html=1;rounded=0;entryX=0;entryY=1;entryDx=0;entryDy=0;exitX=0.25;exitY=0;exitDx=0;exitDy=0;" parent="1" source="7aCp0_iX8ROO9DkPUOGS-85" target="7aCp0_iX8ROO9DkPUOGS-94" edge="1">
          <mxGeometry width="50" height="50" relative="1" as="geometry">
            <mxPoint x="676" y="1601" as="sourcePoint" />
            <mxPoint x="726" y="1551" as="targetPoint" />
          </mxGeometry>
        </mxCell>
        <mxCell id="7aCp0_iX8ROO9DkPUOGS-98" value="U" style="endArrow=none;html=1;rounded=0;entryX=0.5;entryY=0;entryDx=0;entryDy=0;exitX=0.971;exitY=0.662;exitDx=0;exitDy=0;exitPerimeter=0;" parent="1" source="7aCp0_iX8ROO9DkPUOGS-94" target="7aCp0_iX8ROO9DkPUOGS-86" edge="1">
          <mxGeometry width="50" height="50" relative="1" as="geometry">
            <mxPoint x="767.1256313292181" y="1617.1256313292179" as="sourcePoint" />
            <mxPoint x="610" y="1565" as="targetPoint" />
          </mxGeometry>
        </mxCell>
        <mxCell id="7aCp0_iX8ROO9DkPUOGS-100" value="Có" style="rhombus;whiteSpace=wrap;html=1;" parent="1" vertex="1">
          <mxGeometry x="517" y="1764" width="90" height="60" as="geometry" />
        </mxCell>
        <mxCell id="7aCp0_iX8ROO9DkPUOGS-102" value="THÂN NHÂN" style="rounded=0;whiteSpace=wrap;html=1;" parent="1" vertex="1">
          <mxGeometry x="507" y="1882" width="110" height="50" as="geometry" />
        </mxCell>
        <mxCell id="7aCp0_iX8ROO9DkPUOGS-103" value="" style="endArrow=none;html=1;rounded=0;exitX=0.75;exitY=1;exitDx=0;exitDy=0;entryX=0.5;entryY=0;entryDx=0;entryDy=0;" parent="1" source="7aCp0_iX8ROO9DkPUOGS-81" target="7aCp0_iX8ROO9DkPUOGS-100" edge="1">
          <mxGeometry width="50" height="50" relative="1" as="geometry">
            <mxPoint x="645" y="997" as="sourcePoint" />
            <mxPoint x="695" y="947" as="targetPoint" />
          </mxGeometry>
        </mxCell>
        <mxCell id="7aCp0_iX8ROO9DkPUOGS-104" value="" style="endArrow=none;html=1;rounded=0;entryX=0.5;entryY=0;entryDx=0;entryDy=0;exitX=0.5;exitY=1;exitDx=0;exitDy=0;" parent="1" source="7aCp0_iX8ROO9DkPUOGS-100" target="7aCp0_iX8ROO9DkPUOGS-102" edge="1">
          <mxGeometry width="50" height="50" relative="1" as="geometry">
            <mxPoint x="645" y="1330" as="sourcePoint" />
            <mxPoint x="695" y="1280" as="targetPoint" />
          </mxGeometry>
        </mxCell>
        <mxCell id="7aCp0_iX8ROO9DkPUOGS-105" value="Tham gia Bảo hiểm" style="rhombus;whiteSpace=wrap;html=1;" parent="1" vertex="1">
          <mxGeometry x="500" y="1983" width="124" height="93" as="geometry" />
        </mxCell>
        <mxCell id="7aCp0_iX8ROO9DkPUOGS-106" value="" style="endArrow=none;html=1;rounded=0;entryX=0.5;entryY=1;entryDx=0;entryDy=0;exitX=0;exitY=0.5;exitDx=0;exitDy=0;" parent="1" source="7aCp0_iX8ROO9DkPUOGS-105" target="7aCp0_iX8ROO9DkPUOGS-82" edge="1">
          <mxGeometry width="50" height="50" relative="1" as="geometry">
            <mxPoint x="348" y="1945" as="sourcePoint" />
            <mxPoint x="321" y="1822" as="targetPoint" />
            <Array as="points">
              <mxPoint x="220" y="2030" />
            </Array>
          </mxGeometry>
        </mxCell>
        <mxCell id="7aCp0_iX8ROO9DkPUOGS-107" value="" style="endArrow=none;html=1;rounded=0;entryX=0.5;entryY=1;entryDx=0;entryDy=0;exitX=0.5;exitY=0;exitDx=0;exitDy=0;" parent="1" source="7aCp0_iX8ROO9DkPUOGS-105" target="7aCp0_iX8ROO9DkPUOGS-102" edge="1">
          <mxGeometry width="50" height="50" relative="1" as="geometry">
            <mxPoint x="348" y="1945" as="sourcePoint" />
            <mxPoint x="398" y="1895" as="targetPoint" />
          </mxGeometry>
        </mxCell>
        <mxCell id="7aCp0_iX8ROO9DkPUOGS-108" value="" style="endArrow=none;html=1;rounded=0;entryX=0.5;entryY=1;entryDx=0;entryDy=0;exitX=1;exitY=0.5;exitDx=0;exitDy=0;" parent="1" source="7aCp0_iX8ROO9DkPUOGS-105" target="7aCp0_iX8ROO9DkPUOGS-85" edge="1">
          <mxGeometry width="50" height="50" relative="1" as="geometry">
            <mxPoint x="701" y="1945" as="sourcePoint" />
            <mxPoint x="751" y="1895" as="targetPoint" />
            <Array as="points">
              <mxPoint x="759" y="2030" />
            </Array>
          </mxGeometry>
        </mxCell>
        <mxCell id="7aCp0_iX8ROO9DkPUOGS-140" value="THÂN NHÂN" style="swimlane;fontStyle=0;childLayout=stackLayout;horizontal=1;startSize=26;horizontalStack=0;resizeParent=1;resizeParentMax=0;resizeLast=0;collapsible=1;marginBottom=0;align=center;fontSize=14;" parent="1" vertex="1">
          <mxGeometry x="1094" y="929" width="147" height="203" as="geometry" />
        </mxCell>
        <mxCell id="7aCp0_iX8ROO9DkPUOGS-141" value="Mã số" style="text;strokeColor=none;fillColor=none;spacingLeft=4;spacingRight=4;overflow=hidden;rotatable=0;points=[[0,0.5],[1,0.5]];portConstraint=eastwest;fontSize=12;fontStyle=4" parent="7aCp0_iX8ROO9DkPUOGS-140" vertex="1">
          <mxGeometry y="26" width="147" height="30" as="geometry" />
        </mxCell>
        <mxCell id="7aCp0_iX8ROO9DkPUOGS-142" value="Mã NV" style="text;strokeColor=none;fillColor=none;spacingLeft=4;spacingRight=4;overflow=hidden;rotatable=0;points=[[0,0.5],[1,0.5]];portConstraint=eastwest;fontSize=12;" parent="7aCp0_iX8ROO9DkPUOGS-140" vertex="1">
          <mxGeometry y="56" width="147" height="30" as="geometry" />
        </mxCell>
        <mxCell id="7aCp0_iX8ROO9DkPUOGS-143" value="Họ tên" style="text;strokeColor=none;fillColor=none;spacingLeft=4;spacingRight=4;overflow=hidden;rotatable=0;points=[[0,0.5],[1,0.5]];portConstraint=eastwest;fontSize=12;" parent="7aCp0_iX8ROO9DkPUOGS-140" vertex="1">
          <mxGeometry y="86" width="147" height="30" as="geometry" />
        </mxCell>
        <mxCell id="7aCp0_iX8ROO9DkPUOGS-144" value="Ngày sinh" style="text;strokeColor=none;fillColor=none;spacingLeft=4;spacingRight=4;overflow=hidden;rotatable=0;points=[[0,0.5],[1,0.5]];portConstraint=eastwest;fontSize=12;" parent="7aCp0_iX8ROO9DkPUOGS-140" vertex="1">
          <mxGeometry y="116" width="147" height="29" as="geometry" />
        </mxCell>
        <mxCell id="7aCp0_iX8ROO9DkPUOGS-158" value="Giới tính" style="text;strokeColor=none;fillColor=none;spacingLeft=4;spacingRight=4;overflow=hidden;rotatable=0;points=[[0,0.5],[1,0.5]];portConstraint=eastwest;fontSize=12;" parent="7aCp0_iX8ROO9DkPUOGS-140" vertex="1">
          <mxGeometry y="145" width="147" height="29" as="geometry" />
        </mxCell>
        <mxCell id="7aCp0_iX8ROO9DkPUOGS-159" value="Mối liên hệ với NV" style="text;strokeColor=none;fillColor=none;spacingLeft=4;spacingRight=4;overflow=hidden;rotatable=0;points=[[0,0.5],[1,0.5]];portConstraint=eastwest;fontSize=12;" parent="7aCp0_iX8ROO9DkPUOGS-140" vertex="1">
          <mxGeometry y="174" width="147" height="29" as="geometry" />
        </mxCell>
        <mxCell id="7aCp0_iX8ROO9DkPUOGS-160" value="NHÂN VIÊN" style="swimlane;fontStyle=0;childLayout=stackLayout;horizontal=1;startSize=26;horizontalStack=0;resizeParent=1;resizeParentMax=0;resizeLast=0;collapsible=1;marginBottom=0;align=center;fontSize=14;" parent="1" vertex="1">
          <mxGeometry x="1344" y="929" width="147" height="173" as="geometry" />
        </mxCell>
        <mxCell id="7aCp0_iX8ROO9DkPUOGS-161" value="Mã số" style="text;strokeColor=none;fillColor=none;spacingLeft=4;spacingRight=4;overflow=hidden;rotatable=0;points=[[0,0.5],[1,0.5]];portConstraint=eastwest;fontSize=12;fontStyle=4" parent="7aCp0_iX8ROO9DkPUOGS-160" vertex="1">
          <mxGeometry y="26" width="147" height="30" as="geometry" />
        </mxCell>
        <mxCell id="7aCp0_iX8ROO9DkPUOGS-163" value="Họ tên" style="text;strokeColor=none;fillColor=none;spacingLeft=4;spacingRight=4;overflow=hidden;rotatable=0;points=[[0,0.5],[1,0.5]];portConstraint=eastwest;fontSize=12;" parent="7aCp0_iX8ROO9DkPUOGS-160" vertex="1">
          <mxGeometry y="56" width="147" height="30" as="geometry" />
        </mxCell>
        <mxCell id="7aCp0_iX8ROO9DkPUOGS-164" value="Ngày sinh" style="text;strokeColor=none;fillColor=none;spacingLeft=4;spacingRight=4;overflow=hidden;rotatable=0;points=[[0,0.5],[1,0.5]];portConstraint=eastwest;fontSize=12;" parent="7aCp0_iX8ROO9DkPUOGS-160" vertex="1">
          <mxGeometry y="86" width="147" height="29" as="geometry" />
        </mxCell>
        <mxCell id="7aCp0_iX8ROO9DkPUOGS-165" value="Giới tính" style="text;strokeColor=none;fillColor=none;spacingLeft=4;spacingRight=4;overflow=hidden;rotatable=0;points=[[0,0.5],[1,0.5]];portConstraint=eastwest;fontSize=12;" parent="7aCp0_iX8ROO9DkPUOGS-160" vertex="1">
          <mxGeometry y="115" width="147" height="29" as="geometry" />
        </mxCell>
        <mxCell id="7aCp0_iX8ROO9DkPUOGS-166" value="Hệ số lương" style="text;strokeColor=none;fillColor=none;spacingLeft=4;spacingRight=4;overflow=hidden;rotatable=0;points=[[0,0.5],[1,0.5]];portConstraint=eastwest;fontSize=12;" parent="7aCp0_iX8ROO9DkPUOGS-160" vertex="1">
          <mxGeometry y="144" width="147" height="29" as="geometry" />
        </mxCell>
        <mxCell id="7aCp0_iX8ROO9DkPUOGS-168" value="ĐƠN VỊ" style="swimlane;fontStyle=0;childLayout=stackLayout;horizontal=1;startSize=26;horizontalStack=0;resizeParent=1;resizeParentMax=0;resizeLast=0;collapsible=1;marginBottom=0;align=center;fontSize=14;" parent="1" vertex="1">
          <mxGeometry x="1570" y="929" width="147" height="115" as="geometry" />
        </mxCell>
        <mxCell id="7aCp0_iX8ROO9DkPUOGS-169" value="Mã số" style="text;strokeColor=none;fillColor=none;spacingLeft=4;spacingRight=4;overflow=hidden;rotatable=0;points=[[0,0.5],[1,0.5]];portConstraint=eastwest;fontSize=12;fontStyle=4" parent="7aCp0_iX8ROO9DkPUOGS-168" vertex="1">
          <mxGeometry y="26" width="147" height="30" as="geometry" />
        </mxCell>
        <mxCell id="7aCp0_iX8ROO9DkPUOGS-170" value="Mã NV Quản lý" style="text;strokeColor=none;fillColor=none;spacingLeft=4;spacingRight=4;overflow=hidden;rotatable=0;points=[[0,0.5],[1,0.5]];portConstraint=eastwest;fontSize=12;" parent="7aCp0_iX8ROO9DkPUOGS-168" vertex="1">
          <mxGeometry y="56" width="147" height="30" as="geometry" />
        </mxCell>
        <mxCell id="7aCp0_iX8ROO9DkPUOGS-171" value="Tên" style="text;strokeColor=none;fillColor=none;spacingLeft=4;spacingRight=4;overflow=hidden;rotatable=0;points=[[0,0.5],[1,0.5]];portConstraint=eastwest;fontSize=12;" parent="7aCp0_iX8ROO9DkPUOGS-168" vertex="1">
          <mxGeometry y="86" width="147" height="29" as="geometry" />
        </mxCell>
        <mxCell id="7aCp0_iX8ROO9DkPUOGS-174" value="PHÒNG" style="swimlane;fontStyle=0;childLayout=stackLayout;horizontal=1;startSize=26;horizontalStack=0;resizeParent=1;resizeParentMax=0;resizeLast=0;collapsible=1;marginBottom=0;align=center;fontSize=14;" parent="1" vertex="1">
          <mxGeometry x="1805" y="929" width="147" height="115" as="geometry" />
        </mxCell>
        <mxCell id="7aCp0_iX8ROO9DkPUOGS-175" value="Mã số" style="text;strokeColor=none;fillColor=none;spacingLeft=4;spacingRight=4;overflow=hidden;rotatable=0;points=[[0,0.5],[1,0.5]];portConstraint=eastwest;fontSize=12;fontStyle=4" parent="7aCp0_iX8ROO9DkPUOGS-174" vertex="1">
          <mxGeometry y="26" width="147" height="30" as="geometry" />
        </mxCell>
        <mxCell id="7aCp0_iX8ROO9DkPUOGS-176" value="Mã Đơn vị" style="text;strokeColor=none;fillColor=none;spacingLeft=4;spacingRight=4;overflow=hidden;rotatable=0;points=[[0,0.5],[1,0.5]];portConstraint=eastwest;fontSize=12;" parent="7aCp0_iX8ROO9DkPUOGS-174" vertex="1">
          <mxGeometry y="56" width="147" height="30" as="geometry" />
        </mxCell>
        <mxCell id="7aCp0_iX8ROO9DkPUOGS-177" value="Địa chỉ" style="text;strokeColor=none;fillColor=none;spacingLeft=4;spacingRight=4;overflow=hidden;rotatable=0;points=[[0,0.5],[1,0.5]];portConstraint=eastwest;fontSize=12;" parent="7aCp0_iX8ROO9DkPUOGS-174" vertex="1">
          <mxGeometry y="86" width="147" height="29" as="geometry" />
        </mxCell>
        <mxCell id="7aCp0_iX8ROO9DkPUOGS-178" value="DỰ ÁN" style="swimlane;fontStyle=0;childLayout=stackLayout;horizontal=1;startSize=26;horizontalStack=0;resizeParent=1;resizeParentMax=0;resizeLast=0;collapsible=1;marginBottom=0;align=center;fontSize=14;" parent="1" vertex="1">
          <mxGeometry x="1776" y="1141" width="147" height="115" as="geometry" />
        </mxCell>
        <mxCell id="7aCp0_iX8ROO9DkPUOGS-179" value="Mã số" style="text;strokeColor=none;fillColor=none;spacingLeft=4;spacingRight=4;overflow=hidden;rotatable=0;points=[[0,0.5],[1,0.5]];portConstraint=eastwest;fontSize=12;fontStyle=4" parent="7aCp0_iX8ROO9DkPUOGS-178" vertex="1">
          <mxGeometry y="26" width="147" height="30" as="geometry" />
        </mxCell>
        <mxCell id="7aCp0_iX8ROO9DkPUOGS-180" value="Mã ĐV phụ trách" style="text;strokeColor=none;fillColor=none;spacingLeft=4;spacingRight=4;overflow=hidden;rotatable=0;points=[[0,0.5],[1,0.5]];portConstraint=eastwest;fontSize=12;" parent="7aCp0_iX8ROO9DkPUOGS-178" vertex="1">
          <mxGeometry y="56" width="147" height="30" as="geometry" />
        </mxCell>
        <mxCell id="7aCp0_iX8ROO9DkPUOGS-181" value="Tên" style="text;strokeColor=none;fillColor=none;spacingLeft=4;spacingRight=4;overflow=hidden;rotatable=0;points=[[0,0.5],[1,0.5]];portConstraint=eastwest;fontSize=12;" parent="7aCp0_iX8ROO9DkPUOGS-178" vertex="1">
          <mxGeometry y="86" width="147" height="29" as="geometry" />
        </mxCell>
        <mxCell id="7aCp0_iX8ROO9DkPUOGS-182" value="NV_THAMGIA_DA" style="swimlane;fontStyle=0;childLayout=stackLayout;horizontal=1;startSize=26;horizontalStack=0;resizeParent=1;resizeParentMax=0;resizeLast=0;collapsible=1;marginBottom=0;align=center;fontSize=14;" parent="1" vertex="1">
          <mxGeometry x="1554" y="1135" width="147" height="115" as="geometry" />
        </mxCell>
        <mxCell id="7aCp0_iX8ROO9DkPUOGS-183" value="Mã NV" style="text;strokeColor=none;fillColor=none;spacingLeft=4;spacingRight=4;overflow=hidden;rotatable=0;points=[[0,0.5],[1,0.5]];portConstraint=eastwest;fontSize=12;fontStyle=4" parent="7aCp0_iX8ROO9DkPUOGS-182" vertex="1">
          <mxGeometry y="26" width="147" height="30" as="geometry" />
        </mxCell>
        <mxCell id="7aCp0_iX8ROO9DkPUOGS-184" value="Mã Dự án" style="text;strokeColor=none;fillColor=none;spacingLeft=4;spacingRight=4;overflow=hidden;rotatable=0;points=[[0,0.5],[1,0.5]];portConstraint=eastwest;fontSize=12;fontStyle=4" parent="7aCp0_iX8ROO9DkPUOGS-182" vertex="1">
          <mxGeometry y="56" width="147" height="30" as="geometry" />
        </mxCell>
        <mxCell id="7aCp0_iX8ROO9DkPUOGS-185" value="Số giờ" style="text;strokeColor=none;fillColor=none;spacingLeft=4;spacingRight=4;overflow=hidden;rotatable=0;points=[[0,0.5],[1,0.5]];portConstraint=eastwest;fontSize=12;" parent="7aCp0_iX8ROO9DkPUOGS-182" vertex="1">
          <mxGeometry y="86" width="147" height="29" as="geometry" />
        </mxCell>
        <mxCell id="7aCp0_iX8ROO9DkPUOGS-188" value="" style="edgeStyle=entityRelationEdgeStyle;fontSize=12;html=1;endArrow=ERmandOne;startArrow=ERmandOne;rounded=0;exitX=1.012;exitY=0.733;exitDx=0;exitDy=0;exitPerimeter=0;entryX=0;entryY=0.5;entryDx=0;entryDy=0;" parent="1" source="7aCp0_iX8ROO9DkPUOGS-161" target="7aCp0_iX8ROO9DkPUOGS-170" edge="1">
          <mxGeometry width="100" height="100" relative="1" as="geometry">
            <mxPoint x="1500" y="1177" as="sourcePoint" />
            <mxPoint x="1600" y="1077" as="targetPoint" />
          </mxGeometry>
        </mxCell>
        <mxCell id="7aCp0_iX8ROO9DkPUOGS-190" value="" style="edgeStyle=entityRelationEdgeStyle;fontSize=12;html=1;endArrow=ERoneToMany;rounded=0;" parent="1" target="7aCp0_iX8ROO9DkPUOGS-176" edge="1">
          <mxGeometry width="100" height="100" relative="1" as="geometry">
            <mxPoint x="1717" y="979" as="sourcePoint" />
            <mxPoint x="1800" y="999" as="targetPoint" />
          </mxGeometry>
        </mxCell>
        <mxCell id="7aCp0_iX8ROO9DkPUOGS-192" value="" style="edgeStyle=entityRelationEdgeStyle;fontSize=12;html=1;endArrow=ERoneToMany;rounded=0;entryX=0;entryY=0.5;entryDx=0;entryDy=0;exitX=0.997;exitY=0.29;exitDx=0;exitDy=0;exitPerimeter=0;" parent="1" source="7aCp0_iX8ROO9DkPUOGS-171" target="7aCp0_iX8ROO9DkPUOGS-180" edge="1">
          <mxGeometry width="100" height="100" relative="1" as="geometry">
            <mxPoint x="1523" y="1065" as="sourcePoint" />
            <mxPoint x="1699" y="1157" as="targetPoint" />
          </mxGeometry>
        </mxCell>
        <mxCell id="7aCp0_iX8ROO9DkPUOGS-194" value="" style="edgeStyle=entityRelationEdgeStyle;fontSize=12;html=1;endArrow=ERmandOne;startArrow=ERmandOne;rounded=0;entryX=0;entryY=0.5;entryDx=0;entryDy=0;exitX=1;exitY=0.5;exitDx=0;exitDy=0;" parent="1" source="7aCp0_iX8ROO9DkPUOGS-183" target="7aCp0_iX8ROO9DkPUOGS-179" edge="1">
          <mxGeometry width="100" height="100" relative="1" as="geometry">
            <mxPoint x="1676" y="1369" as="sourcePoint" />
            <mxPoint x="1776" y="1269" as="targetPoint" />
          </mxGeometry>
        </mxCell>
        <mxCell id="7aCp0_iX8ROO9DkPUOGS-195" value="" style="edgeStyle=entityRelationEdgeStyle;fontSize=12;html=1;endArrow=ERmandOne;startArrow=ERmandOne;rounded=0;entryX=0;entryY=0.5;entryDx=0;entryDy=0;exitX=1.016;exitY=0.29;exitDx=0;exitDy=0;exitPerimeter=0;jumpStyle=none;" parent="1" source="7aCp0_iX8ROO9DkPUOGS-164" target="7aCp0_iX8ROO9DkPUOGS-183" edge="1">
          <mxGeometry width="100" height="100" relative="1" as="geometry">
            <mxPoint x="1425" y="1257" as="sourcePoint" />
            <mxPoint x="1525" y="1157" as="targetPoint" />
          </mxGeometry>
        </mxCell>
        <mxCell id="7aCp0_iX8ROO9DkPUOGS-196" value="" style="edgeStyle=entityRelationEdgeStyle;fontSize=12;html=1;endArrow=ERzeroToMany;startArrow=ERmandOne;rounded=0;jumpStyle=none;exitX=0;exitY=0.5;exitDx=0;exitDy=0;entryX=1;entryY=0.5;entryDx=0;entryDy=0;" parent="1" source="7aCp0_iX8ROO9DkPUOGS-161" target="7aCp0_iX8ROO9DkPUOGS-142" edge="1">
          <mxGeometry width="100" height="100" relative="1" as="geometry">
            <mxPoint x="1185" y="1177" as="sourcePoint" />
            <mxPoint x="1285" y="1077" as="targetPoint" />
          </mxGeometry>
        </mxCell>
        <mxCell id="ZPO_nTebmCYWcscrVplr-1" value="(1,1)" style="text;html=1;align=center;verticalAlign=middle;resizable=0;points=[];autosize=1;strokeColor=none;fillColor=none;" parent="1" vertex="1">
          <mxGeometry x="268" y="370" width="35" height="18" as="geometry" />
        </mxCell>
        <mxCell id="ZPO_nTebmCYWcscrVplr-2" value="&lt;span style=&quot;color: rgb(0, 0, 0); font-family: Helvetica; font-size: 12px; font-style: normal; font-variant-ligatures: normal; font-variant-caps: normal; font-weight: 400; letter-spacing: normal; orphans: 2; text-align: center; text-indent: 0px; text-transform: none; widows: 2; word-spacing: 0px; -webkit-text-stroke-width: 0px; background-color: rgb(255, 255, 255); text-decoration-thickness: initial; text-decoration-style: initial; text-decoration-color: initial; float: none; display: inline !important;&quot;&gt;(1,n)&lt;/span&gt;" style="text;whiteSpace=wrap;html=1;" parent="1" vertex="1">
          <mxGeometry x="595" y="439" width="48" height="28" as="geometry" />
        </mxCell>
        <mxCell id="ZPO_nTebmCYWcscrVplr-3" value="&lt;span style=&quot;color: rgb(0, 0, 0); font-family: Helvetica; font-size: 12px; font-style: normal; font-variant-ligatures: normal; font-variant-caps: normal; font-weight: 400; letter-spacing: normal; orphans: 2; text-align: center; text-indent: 0px; text-transform: none; widows: 2; word-spacing: 0px; -webkit-text-stroke-width: 0px; background-color: rgb(255, 255, 255); text-decoration-thickness: initial; text-decoration-style: initial; text-decoration-color: initial; float: none; display: inline !important;&quot;&gt;(1,1)&lt;/span&gt;" style="text;whiteSpace=wrap;html=1;" parent="1" vertex="1">
          <mxGeometry x="250.99999999999994" y="441.99999999999994" width="48" height="28" as="geometry" />
        </mxCell>
        <mxCell id="ZPO_nTebmCYWcscrVplr-4" value="&lt;span style=&quot;color: rgb(0, 0, 0); font-family: Helvetica; font-size: 12px; font-style: normal; font-variant-ligatures: normal; font-variant-caps: normal; font-weight: 400; letter-spacing: normal; orphans: 2; text-align: center; text-indent: 0px; text-transform: none; widows: 2; word-spacing: 0px; -webkit-text-stroke-width: 0px; background-color: rgb(255, 255, 255); text-decoration-thickness: initial; text-decoration-style: initial; text-decoration-color: initial; float: none; display: inline !important;&quot;&gt;(1,1)&lt;/span&gt;" style="text;whiteSpace=wrap;html=1;" parent="1" vertex="1">
          <mxGeometry x="243.99999999999994" y="503.99999999999994" width="48" height="28" as="geometry" />
        </mxCell>
        <mxCell id="ZPO_nTebmCYWcscrVplr-5" value="&lt;span style=&quot;color: rgb(0, 0, 0); font-family: Helvetica; font-size: 12px; font-style: normal; font-variant-ligatures: normal; font-variant-caps: normal; font-weight: 400; letter-spacing: normal; orphans: 2; text-align: center; text-indent: 0px; text-transform: none; widows: 2; word-spacing: 0px; -webkit-text-stroke-width: 0px; background-color: rgb(255, 255, 255); text-decoration-thickness: initial; text-decoration-style: initial; text-decoration-color: initial; float: none; display: inline !important;&quot;&gt;(1,n)&lt;/span&gt;" style="text;whiteSpace=wrap;html=1;" parent="1" vertex="1">
          <mxGeometry x="682" y="417.99999999999994" width="48" height="28" as="geometry" />
        </mxCell>
        <mxCell id="ZPO_nTebmCYWcscrVplr-7" value="&lt;span style=&quot;color: rgb(0, 0, 0); font-family: Helvetica; font-size: 12px; font-style: normal; font-variant-ligatures: normal; font-variant-caps: normal; font-weight: 400; letter-spacing: normal; orphans: 2; text-align: center; text-indent: 0px; text-transform: none; widows: 2; word-spacing: 0px; -webkit-text-stroke-width: 0px; background-color: rgb(255, 255, 255); text-decoration-thickness: initial; text-decoration-style: initial; text-decoration-color: initial; float: none; display: inline !important;&quot;&gt;(1,1)&lt;/span&gt;" style="text;whiteSpace=wrap;html=1;" parent="1" vertex="1">
          <mxGeometry x="838.0033333333334" y="420" width="45" height="28" as="geometry" />
        </mxCell>
        <mxCell id="ZPO_nTebmCYWcscrVplr-8" value="&lt;span style=&quot;color: rgb(0, 0, 0); font-family: Helvetica; font-size: 12px; font-style: normal; font-variant-ligatures: normal; font-variant-caps: normal; font-weight: 400; letter-spacing: normal; orphans: 2; text-align: center; text-indent: 0px; text-transform: none; widows: 2; word-spacing: 0px; -webkit-text-stroke-width: 0px; background-color: rgb(255, 255, 255); text-decoration-thickness: initial; text-decoration-style: initial; text-decoration-color: initial; float: none; display: inline !important;&quot;&gt;(1,n)&lt;/span&gt;" style="text;whiteSpace=wrap;html=1;" parent="1" vertex="1">
          <mxGeometry x="615" y="537.4966666666668" width="45" height="28" as="geometry" />
        </mxCell>
        <mxCell id="ZPO_nTebmCYWcscrVplr-9" value="&lt;span style=&quot;color: rgb(0, 0, 0); font-family: Helvetica; font-size: 12px; font-style: normal; font-variant-ligatures: normal; font-variant-caps: normal; font-weight: 400; letter-spacing: normal; orphans: 2; text-align: center; text-indent: 0px; text-transform: none; widows: 2; word-spacing: 0px; -webkit-text-stroke-width: 0px; background-color: rgb(255, 255, 255); text-decoration-thickness: initial; text-decoration-style: initial; text-decoration-color: initial; float: none; display: inline !important;&quot;&gt;(1,1)&lt;/span&gt;" style="text;whiteSpace=wrap;html=1;" parent="1" vertex="1">
          <mxGeometry x="615" y="621.9966666666668" width="45" height="28" as="geometry" />
        </mxCell>
        <mxCell id="ZPO_nTebmCYWcscrVplr-10" value="&lt;span style=&quot;color: rgb(0, 0, 0); font-family: Helvetica; font-size: 12px; font-style: normal; font-variant-ligatures: normal; font-variant-caps: normal; font-weight: 400; letter-spacing: normal; orphans: 2; text-align: center; text-indent: 0px; text-transform: none; widows: 2; word-spacing: 0px; -webkit-text-stroke-width: 0px; background-color: rgb(255, 255, 255); text-decoration-thickness: initial; text-decoration-style: initial; text-decoration-color: initial; float: none; display: inline !important;&quot;&gt;(n,n)&lt;/span&gt;" style="text;whiteSpace=wrap;html=1;" parent="1" vertex="1">
          <mxGeometry x="203.0033333333335" y="620.0033333333334" width="45" height="28" as="geometry" />
        </mxCell>
        <mxCell id="ZPO_nTebmCYWcscrVplr-12" value="&lt;span style=&quot;color: rgb(0, 0, 0); font-family: Helvetica; font-size: 12px; font-style: normal; font-variant-ligatures: normal; font-variant-caps: normal; font-weight: 400; letter-spacing: normal; orphans: 2; text-align: center; text-indent: 0px; text-transform: none; widows: 2; word-spacing: 0px; -webkit-text-stroke-width: 0px; background-color: rgb(255, 255, 255); text-decoration-thickness: initial; text-decoration-style: initial; text-decoration-color: initial; float: none; display: inline !important;&quot;&gt;(0,n)&lt;/span&gt;" style="text;whiteSpace=wrap;html=1;" parent="1" vertex="1">
          <mxGeometry x="83.00333333333349" y="502.0033333333335" width="45" height="28" as="geometry" />
        </mxCell>
        <mxCell id="FR4WmEnGMQ0B1W3zFD_d-11" value="" style="edgeStyle=orthogonalEdgeStyle;rounded=0;orthogonalLoop=1;jettySize=auto;html=1;fontSize=18;" parent="1" source="FR4WmEnGMQ0B1W3zFD_d-1" target="FR4WmEnGMQ0B1W3zFD_d-4" edge="1">
          <mxGeometry relative="1" as="geometry" />
        </mxCell>
        <mxCell id="FR4WmEnGMQ0B1W3zFD_d-1" value="&lt;font style=&quot;font-size: 18px;&quot;&gt;Bài toán thực tế&lt;/font&gt;" style="ellipse;whiteSpace=wrap;html=1;aspect=fixed;fillColor=#fff2cc;strokeColor=#d6b656;" parent="1" vertex="1">
          <mxGeometry x="148" y="1104" width="94" height="94" as="geometry" />
        </mxCell>
        <mxCell id="FR4WmEnGMQ0B1W3zFD_d-12" value="" style="edgeStyle=orthogonalEdgeStyle;rounded=0;orthogonalLoop=1;jettySize=auto;html=1;fontSize=18;" parent="1" source="FR4WmEnGMQ0B1W3zFD_d-4" target="FR4WmEnGMQ0B1W3zFD_d-6" edge="1">
          <mxGeometry relative="1" as="geometry" />
        </mxCell>
        <mxCell id="FR4WmEnGMQ0B1W3zFD_d-4" value="Mô hình thực thể kết hợp" style="whiteSpace=wrap;html=1;aspect=fixed;fontSize=18;fillColor=#FFFF33;strokeColor=#d6b656;" parent="1" vertex="1">
          <mxGeometry x="303" y="1111" width="80" height="80" as="geometry" />
        </mxCell>
        <mxCell id="FR4WmEnGMQ0B1W3zFD_d-14" style="edgeStyle=orthogonalEdgeStyle;rounded=0;orthogonalLoop=1;jettySize=auto;html=1;fontSize=18;" parent="1" source="FR4WmEnGMQ0B1W3zFD_d-6" target="FR4WmEnGMQ0B1W3zFD_d-8" edge="1">
          <mxGeometry relative="1" as="geometry" />
        </mxCell>
        <mxCell id="FR4WmEnGMQ0B1W3zFD_d-6" value="Mô hình CSDL&lt;br&gt;Quan hệ" style="whiteSpace=wrap;html=1;aspect=fixed;fontSize=18;fillColor=#FFFF33;strokeColor=#d6b656;" parent="1" vertex="1">
          <mxGeometry x="449" y="1111" width="80" height="80" as="geometry" />
        </mxCell>
        <mxCell id="FR4WmEnGMQ0B1W3zFD_d-8" value="" style="rounded=0;whiteSpace=wrap;html=1;fontSize=18;align=center;" parent="1" vertex="1">
          <mxGeometry x="607" y="1045" width="169" height="212" as="geometry" />
        </mxCell>
        <mxCell id="FR4WmEnGMQ0B1W3zFD_d-9" value="Cơ sở dữ liệu" style="shape=cylinder3;whiteSpace=wrap;html=1;boundedLbl=1;backgroundOutline=1;size=15;fontSize=18;fillColor=#dae8fc;strokeColor=#6c8ebf;" parent="1" vertex="1">
          <mxGeometry x="633.5" y="1138" width="116" height="99" as="geometry" />
        </mxCell>
        <mxCell id="FR4WmEnGMQ0B1W3zFD_d-10" value="&lt;span style=&quot;color: rgb(0, 0, 0); font-family: Helvetica; font-size: 18px; font-style: normal; font-variant-ligatures: normal; font-variant-caps: normal; font-weight: 400; letter-spacing: normal; orphans: 2; text-indent: 0px; text-transform: none; widows: 2; word-spacing: 0px; -webkit-text-stroke-width: 0px; background-color: rgb(255, 255, 255); text-decoration-thickness: initial; text-decoration-style: initial; text-decoration-color: initial; float: none; display: inline !important;&quot;&gt;Hệ quản trị cơ sở dữ liệu&lt;/span&gt;" style="text;whiteSpace=wrap;html=1;fontSize=18;align=center;" parent="1" vertex="1">
          <mxGeometry x="624" y="1062" width="134" height="51" as="geometry" />
        </mxCell>
        <mxCell id="FR4WmEnGMQ0B1W3zFD_d-28" style="edgeStyle=none;rounded=0;orthogonalLoop=1;jettySize=auto;html=1;fontSize=18;endArrow=none;endFill=0;strokeWidth=1;" parent="1" source="FR4WmEnGMQ0B1W3zFD_d-15" target="FR4WmEnGMQ0B1W3zFD_d-19" edge="1">
          <mxGeometry relative="1" as="geometry" />
        </mxCell>
        <mxCell id="FR4WmEnGMQ0B1W3zFD_d-15" value="HỌC SINH" style="rounded=0;whiteSpace=wrap;html=1;fontSize=18;" parent="1" vertex="1">
          <mxGeometry x="1630" y="318" width="120" height="60" as="geometry" />
        </mxCell>
        <mxCell id="FR4WmEnGMQ0B1W3zFD_d-24" style="rounded=0;orthogonalLoop=1;jettySize=auto;html=1;entryX=0;entryY=0.5;entryDx=0;entryDy=0;fontSize=18;strokeWidth=1;endArrow=none;endFill=0;" parent="1" source="FR4WmEnGMQ0B1W3zFD_d-16" target="FR4WmEnGMQ0B1W3zFD_d-15" edge="1">
          <mxGeometry relative="1" as="geometry" />
        </mxCell>
        <mxCell id="FR4WmEnGMQ0B1W3zFD_d-16" value="&lt;u&gt;Mã học sinh&lt;/u&gt;" style="ellipse;whiteSpace=wrap;html=1;fontSize=18;" parent="1" vertex="1">
          <mxGeometry x="1447" y="174" width="120" height="80" as="geometry" />
        </mxCell>
        <mxCell id="FR4WmEnGMQ0B1W3zFD_d-27" style="edgeStyle=none;rounded=0;orthogonalLoop=1;jettySize=auto;html=1;entryX=1;entryY=0.5;entryDx=0;entryDy=0;fontSize=18;endArrow=none;endFill=0;strokeWidth=1;" parent="1" source="FR4WmEnGMQ0B1W3zFD_d-18" target="FR4WmEnGMQ0B1W3zFD_d-15" edge="1">
          <mxGeometry relative="1" as="geometry" />
        </mxCell>
        <mxCell id="FR4WmEnGMQ0B1W3zFD_d-18" value="Tên" style="ellipse;whiteSpace=wrap;html=1;fontSize=18;" parent="1" vertex="1">
          <mxGeometry x="1821" y="174" width="120" height="80" as="geometry" />
        </mxCell>
        <mxCell id="FR4WmEnGMQ0B1W3zFD_d-29" style="edgeStyle=none;rounded=0;orthogonalLoop=1;jettySize=auto;html=1;entryX=0.5;entryY=0;entryDx=0;entryDy=0;fontSize=18;endArrow=none;endFill=0;strokeWidth=1;" parent="1" source="FR4WmEnGMQ0B1W3zFD_d-19" target="FR4WmEnGMQ0B1W3zFD_d-20" edge="1">
          <mxGeometry relative="1" as="geometry" />
        </mxCell>
        <mxCell id="FR4WmEnGMQ0B1W3zFD_d-30" style="edgeStyle=none;rounded=0;orthogonalLoop=1;jettySize=auto;html=1;entryX=0.5;entryY=0;entryDx=0;entryDy=0;fontSize=18;endArrow=none;endFill=0;strokeWidth=1;" parent="1" source="FR4WmEnGMQ0B1W3zFD_d-19" target="FR4WmEnGMQ0B1W3zFD_d-21" edge="1">
          <mxGeometry relative="1" as="geometry" />
        </mxCell>
        <mxCell id="FR4WmEnGMQ0B1W3zFD_d-31" style="edgeStyle=none;rounded=0;orthogonalLoop=1;jettySize=auto;html=1;fontSize=18;endArrow=none;endFill=0;strokeWidth=1;" parent="1" source="FR4WmEnGMQ0B1W3zFD_d-19" target="FR4WmEnGMQ0B1W3zFD_d-22" edge="1">
          <mxGeometry relative="1" as="geometry" />
        </mxCell>
        <mxCell id="FR4WmEnGMQ0B1W3zFD_d-32" style="edgeStyle=none;rounded=0;orthogonalLoop=1;jettySize=auto;html=1;fontSize=18;endArrow=none;endFill=0;strokeWidth=1;" parent="1" source="FR4WmEnGMQ0B1W3zFD_d-19" target="FR4WmEnGMQ0B1W3zFD_d-23" edge="1">
          <mxGeometry relative="1" as="geometry" />
        </mxCell>
        <mxCell id="FR4WmEnGMQ0B1W3zFD_d-19" value="Địa chỉ" style="ellipse;whiteSpace=wrap;html=1;fontSize=18;" parent="1" vertex="1">
          <mxGeometry x="1630" y="424" width="120" height="80" as="geometry" />
        </mxCell>
        <mxCell id="FR4WmEnGMQ0B1W3zFD_d-20" value="Tên đường" style="ellipse;whiteSpace=wrap;html=1;fontSize=18;" parent="1" vertex="1">
          <mxGeometry x="1393" y="552" width="120" height="80" as="geometry" />
        </mxCell>
        <mxCell id="FR4WmEnGMQ0B1W3zFD_d-21" value="Thành phố" style="ellipse;whiteSpace=wrap;html=1;fontSize=18;" parent="1" vertex="1">
          <mxGeometry x="1567" y="555" width="120" height="80" as="geometry" />
        </mxCell>
        <mxCell id="FR4WmEnGMQ0B1W3zFD_d-22" value="Quận" style="ellipse;whiteSpace=wrap;html=1;fontSize=18;" parent="1" vertex="1">
          <mxGeometry x="1754" y="555" width="120" height="80" as="geometry" />
        </mxCell>
        <mxCell id="FR4WmEnGMQ0B1W3zFD_d-34" value="" style="endArrow=classic;html=1;rounded=0;fontSize=18;strokeWidth=2;exitX=0.5;exitY=1;exitDx=0;exitDy=0;strokeColor=#FF0000;" parent="1" source="FR4WmEnGMQ0B1W3zFD_d-16" edge="1">
          <mxGeometry width="50" height="50" relative="1" as="geometry">
            <mxPoint x="1463" y="340" as="sourcePoint" />
            <mxPoint x="1467" y="275" as="targetPoint" />
          </mxGeometry>
        </mxCell>
        <mxCell id="FR4WmEnGMQ0B1W3zFD_d-35" value="&lt;font color=&quot;#ff0000&quot;&gt;Thuộc tính khóa&lt;/font&gt;" style="text;html=1;align=center;verticalAlign=middle;resizable=0;points=[];autosize=1;strokeColor=none;fillColor=none;fontSize=18;" parent="1" vertex="1">
          <mxGeometry x="1323" y="265" width="139" height="26" as="geometry" />
        </mxCell>
        <mxCell id="FR4WmEnGMQ0B1W3zFD_d-36" value="&lt;font color=&quot;#ff0000&quot;&gt;Thuộc tính đơn trị&lt;/font&gt;" style="text;html=1;align=center;verticalAlign=middle;resizable=0;points=[];autosize=1;strokeColor=none;fillColor=none;fontSize=18;" parent="1" vertex="1">
          <mxGeometry x="1825" y="338" width="152" height="26" as="geometry" />
        </mxCell>
        <mxCell id="FR4WmEnGMQ0B1W3zFD_d-23" value="Mã bưu chính" style="ellipse;whiteSpace=wrap;html=1;fontSize=18;" parent="1" vertex="1">
          <mxGeometry x="1931" y="552" width="120" height="80" as="geometry" />
        </mxCell>
        <mxCell id="FR4WmEnGMQ0B1W3zFD_d-37" value="" style="endArrow=classic;html=1;rounded=0;fontSize=18;strokeWidth=2;exitX=0.5;exitY=1;exitDx=0;exitDy=0;strokeColor=#FF0000;" parent="1" edge="1">
          <mxGeometry width="50" height="50" relative="1" as="geometry">
            <mxPoint x="1886" y="253" as="sourcePoint" />
            <mxPoint x="1886" y="318" as="targetPoint" />
          </mxGeometry>
        </mxCell>
        <mxCell id="FR4WmEnGMQ0B1W3zFD_d-39" value="" style="endArrow=classic;html=1;rounded=0;fontSize=18;strokeWidth=2;exitX=1;exitY=0.5;exitDx=0;exitDy=0;strokeColor=#FF0000;" parent="1" source="FR4WmEnGMQ0B1W3zFD_d-19" edge="1">
          <mxGeometry width="50" height="50" relative="1" as="geometry">
            <mxPoint x="1791" y="453" as="sourcePoint" />
            <mxPoint x="1852" y="462" as="targetPoint" />
          </mxGeometry>
        </mxCell>
        <mxCell id="FR4WmEnGMQ0B1W3zFD_d-41" value="" style="ellipse;whiteSpace=wrap;html=1;fontSize=18;fillColor=none;" parent="1" vertex="1">
          <mxGeometry x="1625.5" y="172" width="129" height="89" as="geometry" />
        </mxCell>
        <mxCell id="FR4WmEnGMQ0B1W3zFD_d-40" value="&lt;font color=&quot;#ff0000&quot;&gt;Thuộc tính phức hợp&lt;/font&gt;" style="text;html=1;align=center;verticalAlign=middle;resizable=0;points=[];autosize=1;strokeColor=none;fillColor=none;fontSize=18;" parent="1" vertex="1">
          <mxGeometry x="1844" y="448" width="178" height="26" as="geometry" />
        </mxCell>
        <mxCell id="FR4WmEnGMQ0B1W3zFD_d-43" style="edgeStyle=none;rounded=0;orthogonalLoop=1;jettySize=auto;html=1;entryX=0.5;entryY=0;entryDx=0;entryDy=0;fontSize=18;fontColor=#FF0000;endArrow=none;endFill=0;strokeColor=#000000;strokeWidth=1;" parent="1" source="FR4WmEnGMQ0B1W3zFD_d-42" target="FR4WmEnGMQ0B1W3zFD_d-15" edge="1">
          <mxGeometry relative="1" as="geometry" />
        </mxCell>
        <mxCell id="FR4WmEnGMQ0B1W3zFD_d-42" value="Bằng cấp" style="ellipse;whiteSpace=wrap;html=1;fontSize=18;fillColor=none;" parent="1" vertex="1">
          <mxGeometry x="1630.5" y="175.63" width="119" height="81.75" as="geometry" />
        </mxCell>
        <mxCell id="FR4WmEnGMQ0B1W3zFD_d-44" value="" style="endArrow=classic;html=1;rounded=0;fontSize=18;strokeWidth=2;exitX=0.826;exitY=0.079;exitDx=0;exitDy=0;strokeColor=#FF0000;exitPerimeter=0;" parent="1" source="FR4WmEnGMQ0B1W3zFD_d-41" edge="1">
          <mxGeometry width="50" height="50" relative="1" as="geometry">
            <mxPoint x="1896" y="263" as="sourcePoint" />
            <mxPoint x="1760" y="145" as="targetPoint" />
          </mxGeometry>
        </mxCell>
        <mxCell id="FR4WmEnGMQ0B1W3zFD_d-46" value="&lt;font color=&quot;#ff0000&quot;&gt;Thuộc tính đa trị&lt;/font&gt;" style="text;html=1;align=center;verticalAlign=middle;resizable=0;points=[];autosize=1;strokeColor=none;fillColor=none;fontSize=18;" parent="1" vertex="1">
          <mxGeometry x="1749" y="113" width="140" height="26" as="geometry" />
        </mxCell>
        <mxCell id="FR4WmEnGMQ0B1W3zFD_d-49" style="edgeStyle=none;rounded=0;orthogonalLoop=1;jettySize=auto;html=1;entryX=0;entryY=0.75;entryDx=0;entryDy=0;fontSize=18;fontColor=#000000;endArrow=none;endFill=0;strokeColor=#000000;strokeWidth=1;" parent="1" source="FR4WmEnGMQ0B1W3zFD_d-47" target="FR4WmEnGMQ0B1W3zFD_d-15" edge="1">
          <mxGeometry relative="1" as="geometry" />
        </mxCell>
        <mxCell id="FR4WmEnGMQ0B1W3zFD_d-47" value="&lt;font color=&quot;#000000&quot;&gt;Tuổi&lt;/font&gt;" style="ellipse;whiteSpace=wrap;html=1;fontSize=18;fontColor=#FF0000;strokeColor=default;fillColor=none;gradientColor=none;dashed=1;" parent="1" vertex="1">
          <mxGeometry x="1450" y="314" width="119" height="76" as="geometry" />
        </mxCell>
        <mxCell id="FR4WmEnGMQ0B1W3zFD_d-50" value="" style="endArrow=classic;html=1;rounded=0;fontSize=18;strokeWidth=2;exitX=0;exitY=1;exitDx=0;exitDy=0;strokeColor=#FF0000;" parent="1" source="FR4WmEnGMQ0B1W3zFD_d-47" edge="1">
          <mxGeometry width="50" height="50" relative="1" as="geometry">
            <mxPoint x="1517" y="264" as="sourcePoint" />
            <mxPoint x="1444" y="410" as="targetPoint" />
          </mxGeometry>
        </mxCell>
        <mxCell id="FR4WmEnGMQ0B1W3zFD_d-51" value="&lt;font color=&quot;#ff0000&quot;&gt;Thuộc tính suy diễn&lt;/font&gt;" style="text;html=1;align=center;verticalAlign=middle;resizable=0;points=[];autosize=1;strokeColor=none;fillColor=none;fontSize=18;" parent="1" vertex="1">
          <mxGeometry x="1316" y="416" width="167" height="26" as="geometry" />
        </mxCell>
        <mxCell id="5OWTrBZKdkLz1kWFxAAw-1" value="&lt;b&gt;&lt;font style=&quot;font-size: 17px;&quot;&gt;&lt;br&gt;&lt;/font&gt;&lt;/b&gt;" style="rounded=1;whiteSpace=wrap;html=1;" parent="1" vertex="1">
          <mxGeometry x="723" y="-964" width="234" height="114" as="geometry" />
        </mxCell>
        <mxCell id="5OWTrBZKdkLz1kWFxAAw-7" style="edgeStyle=orthogonalEdgeStyle;rounded=0;orthogonalLoop=1;jettySize=auto;html=1;entryX=0.5;entryY=0;entryDx=0;entryDy=0;fontSize=17;exitX=0;exitY=0.5;exitDx=0;exitDy=0;" parent="1" source="5OWTrBZKdkLz1kWFxAAw-1" target="5OWTrBZKdkLz1kWFxAAw-5" edge="1">
          <mxGeometry relative="1" as="geometry" />
        </mxCell>
        <mxCell id="5OWTrBZKdkLz1kWFxAAw-8" style="edgeStyle=orthogonalEdgeStyle;rounded=0;orthogonalLoop=1;jettySize=auto;html=1;exitX=1;exitY=0.5;exitDx=0;exitDy=0;fontSize=17;" parent="1" source="5OWTrBZKdkLz1kWFxAAw-1" target="5OWTrBZKdkLz1kWFxAAw-6" edge="1">
          <mxGeometry relative="1" as="geometry" />
        </mxCell>
        <mxCell id="5OWTrBZKdkLz1kWFxAAw-2" value="&lt;span style=&quot;font-family: -apple-system, BlinkMacSystemFont, &amp;quot;Segoe UI&amp;quot;, &amp;quot;Helvetica Neue&amp;quot;, Helvetica, Arial, Ubuntu, sans-serif; text-align: start;&quot;&gt;&lt;font style=&quot;font-size: 19px;&quot;&gt;Triệu chứng bệnh nhân&lt;/font&gt;&lt;/span&gt;" style="text;html=1;strokeColor=none;fillColor=none;align=center;verticalAlign=middle;whiteSpace=wrap;rounded=0;fontSize=17;" parent="1" vertex="1">
          <mxGeometry x="750.25" y="-914" width="171" height="46" as="geometry" />
        </mxCell>
        <mxCell id="5OWTrBZKdkLz1kWFxAAw-4" value="&lt;b style=&quot;&quot;&gt;&lt;font style=&quot;&quot;&gt;&lt;font style=&quot;font-size: 25px;&quot;&gt;Đầu vào&lt;/font&gt;&lt;br&gt;&lt;/font&gt;&lt;/b&gt;" style="text;html=1;strokeColor=none;fillColor=none;align=center;verticalAlign=middle;whiteSpace=wrap;rounded=0;fontSize=17;" parent="1" vertex="1">
          <mxGeometry x="750.25" y="-968" width="169.75" height="62" as="geometry" />
        </mxCell>
        <mxCell id="5OWTrBZKdkLz1kWFxAAw-14" style="edgeStyle=orthogonalEdgeStyle;rounded=0;orthogonalLoop=1;jettySize=auto;html=1;fontSize=17;" parent="1" source="5OWTrBZKdkLz1kWFxAAw-5" target="5OWTrBZKdkLz1kWFxAAw-12" edge="1">
          <mxGeometry relative="1" as="geometry" />
        </mxCell>
        <mxCell id="5OWTrBZKdkLz1kWFxAAw-5" value="&lt;b&gt;&lt;font style=&quot;font-size: 22px;&quot;&gt;SUY LUẬN&lt;/font&gt;&lt;/b&gt;" style="rounded=0;whiteSpace=wrap;html=1;fontSize=17;fillColor=#dae8fc;strokeColor=#6c8ebf;" parent="1" vertex="1">
          <mxGeometry x="631.5" y="-793" width="120" height="60" as="geometry" />
        </mxCell>
        <mxCell id="5OWTrBZKdkLz1kWFxAAw-15" style="edgeStyle=orthogonalEdgeStyle;rounded=0;orthogonalLoop=1;jettySize=auto;html=1;fontSize=17;" parent="1" source="5OWTrBZKdkLz1kWFxAAw-6" target="5OWTrBZKdkLz1kWFxAAw-13" edge="1">
          <mxGeometry relative="1" as="geometry" />
        </mxCell>
        <mxCell id="5OWTrBZKdkLz1kWFxAAw-6" value="&lt;b&gt;&lt;font style=&quot;font-size: 22px;&quot;&gt;HỌC CÓ GIÁM SÁT&lt;/font&gt;&lt;/b&gt;" style="rounded=0;whiteSpace=wrap;html=1;fontSize=17;fillColor=#f8cecc;strokeColor=#b85450;" parent="1" vertex="1">
          <mxGeometry x="934" y="-782" width="120" height="60" as="geometry" />
        </mxCell>
        <mxCell id="5OWTrBZKdkLz1kWFxAAw-10" value="&lt;span style=&quot;font-family: -apple-system, BlinkMacSystemFont, &amp;quot;Segoe UI&amp;quot;, &amp;quot;Helvetica Neue&amp;quot;, Helvetica, Arial, Ubuntu, sans-serif; text-align: start;&quot;&gt;&lt;font style=&quot;font-size: 17px;&quot;&gt;Dữ liệu đầu vào cho Suy luận&lt;/font&gt;&lt;/span&gt;" style="text;html=1;strokeColor=none;fillColor=none;align=center;verticalAlign=middle;whiteSpace=wrap;rounded=0;fontSize=17;" parent="1" vertex="1">
          <mxGeometry x="615" y="-880" width="73.5" height="46" as="geometry" />
        </mxCell>
        <mxCell id="5OWTrBZKdkLz1kWFxAAw-11" value="&lt;span style=&quot;font-family: -apple-system, BlinkMacSystemFont, &amp;quot;Segoe UI&amp;quot;, &amp;quot;Helvetica Neue&amp;quot;, Helvetica, Arial, Ubuntu, sans-serif; text-align: start;&quot;&gt;&lt;font style=&quot;font-size: 17px;&quot;&gt;Dữ liệu đầu vào cho Dự đoám&lt;/font&gt;&lt;/span&gt;" style="text;html=1;strokeColor=none;fillColor=none;align=center;verticalAlign=middle;whiteSpace=wrap;rounded=0;fontSize=17;" parent="1" vertex="1">
          <mxGeometry x="999" y="-876" width="73.5" height="46" as="geometry" />
        </mxCell>
        <mxCell id="5OWTrBZKdkLz1kWFxAAw-21" style="edgeStyle=orthogonalEdgeStyle;rounded=0;orthogonalLoop=1;jettySize=auto;html=1;entryX=0.458;entryY=0.011;entryDx=0;entryDy=0;fontSize=17;entryPerimeter=0;" parent="1" source="5OWTrBZKdkLz1kWFxAAw-12" target="5OWTrBZKdkLz1kWFxAAw-18" edge="1">
          <mxGeometry relative="1" as="geometry" />
        </mxCell>
        <mxCell id="5OWTrBZKdkLz1kWFxAAw-12" value="&lt;font style=&quot;font-size: 19px;&quot;&gt;Nhóm bệnh T1 hoặc NULL&lt;/font&gt;" style="rounded=0;whiteSpace=wrap;html=1;fontSize=17;" parent="1" vertex="1">
          <mxGeometry x="594.5" y="-672" width="193" height="75" as="geometry" />
        </mxCell>
        <mxCell id="5OWTrBZKdkLz1kWFxAAw-22" style="edgeStyle=orthogonalEdgeStyle;rounded=0;orthogonalLoop=1;jettySize=auto;html=1;fontSize=17;entryX=0.445;entryY=0.001;entryDx=0;entryDy=0;entryPerimeter=0;" parent="1" source="5OWTrBZKdkLz1kWFxAAw-13" target="5OWTrBZKdkLz1kWFxAAw-18" edge="1">
          <mxGeometry relative="1" as="geometry">
            <mxPoint x="856.3333333333333" y="-545" as="targetPoint" />
          </mxGeometry>
        </mxCell>
        <mxCell id="5OWTrBZKdkLz1kWFxAAw-13" value="&lt;font style=&quot;font-size: 21px;&quot;&gt;Nhóm bệnh T2 hoặc NULL&lt;/font&gt;" style="rounded=0;whiteSpace=wrap;html=1;fontSize=17;" parent="1" vertex="1">
          <mxGeometry x="898.75" y="-672.5" width="190.5" height="75" as="geometry" />
        </mxCell>
        <mxCell id="5OWTrBZKdkLz1kWFxAAw-16" value="&lt;div style=&quot;text-align: start;&quot;&gt;&lt;font face=&quot;-apple-system, BlinkMacSystemFont, Segoe UI, Helvetica Neue, Helvetica, Arial, Ubuntu, sans-serif&quot;&gt;Kết quả đầu ra&lt;/font&gt;&lt;/div&gt;" style="text;html=1;strokeColor=none;fillColor=none;align=center;verticalAlign=middle;whiteSpace=wrap;rounded=0;fontSize=17;" parent="1" vertex="1">
          <mxGeometry x="626" y="-716" width="73.5" height="46" as="geometry" />
        </mxCell>
        <mxCell id="5OWTrBZKdkLz1kWFxAAw-17" value="&lt;div style=&quot;text-align: start;&quot;&gt;&lt;font face=&quot;-apple-system, BlinkMacSystemFont, Segoe UI, Helvetica Neue, Helvetica, Arial, Ubuntu, sans-serif&quot;&gt;Kết quả đầu ra&lt;/font&gt;&lt;/div&gt;" style="text;html=1;strokeColor=none;fillColor=none;align=center;verticalAlign=middle;whiteSpace=wrap;rounded=0;fontSize=17;" parent="1" vertex="1">
          <mxGeometry x="1003" y="-718" width="73.5" height="46" as="geometry" />
        </mxCell>
        <mxCell id="5OWTrBZKdkLz1kWFxAAw-25" style="edgeStyle=orthogonalEdgeStyle;rounded=0;orthogonalLoop=1;jettySize=auto;html=1;fontSize=25;" parent="1" source="5OWTrBZKdkLz1kWFxAAw-18" target="5OWTrBZKdkLz1kWFxAAw-23" edge="1">
          <mxGeometry relative="1" as="geometry" />
        </mxCell>
        <mxCell id="5OWTrBZKdkLz1kWFxAAw-32" style="edgeStyle=orthogonalEdgeStyle;rounded=0;orthogonalLoop=1;jettySize=auto;html=1;entryX=0.5;entryY=0;entryDx=0;entryDy=0;fontSize=25;" parent="1" source="5OWTrBZKdkLz1kWFxAAw-18" target="5OWTrBZKdkLz1kWFxAAw-27" edge="1">
          <mxGeometry relative="1" as="geometry" />
        </mxCell>
        <mxCell id="5OWTrBZKdkLz1kWFxAAw-18" value="" style="rounded=0;whiteSpace=wrap;html=1;fontSize=17;" parent="1" vertex="1">
          <mxGeometry x="742.5" y="-545" width="236" height="161" as="geometry" />
        </mxCell>
        <mxCell id="5OWTrBZKdkLz1kWFxAAw-19" value="&lt;b&gt;XỬ LÝ 2 KẾT QUẢ&lt;/b&gt;" style="text;html=1;strokeColor=none;fillColor=none;align=center;verticalAlign=middle;whiteSpace=wrap;rounded=0;labelBackgroundColor=none;fontSize=17;" parent="1" vertex="1">
          <mxGeometry x="767" y="-537" width="173" height="57" as="geometry" />
        </mxCell>
        <mxCell id="5OWTrBZKdkLz1kWFxAAw-20" value="&lt;span style=&quot;color: rgb(0, 0, 0); font-family: -apple-system, BlinkMacSystemFont, &amp;quot;Segoe UI&amp;quot;, &amp;quot;Helvetica Neue&amp;quot;, Helvetica, Arial, Ubuntu, sans-serif; font-size: 22px; font-style: normal; font-variant-ligatures: normal; font-variant-caps: normal; font-weight: 400; letter-spacing: normal; orphans: 2; text-indent: 0px; text-transform: none; widows: 2; word-spacing: 0px; -webkit-text-stroke-width: 0px; background-color: rgb(255, 255, 255); text-decoration-thickness: initial; text-decoration-style: initial; text-decoration-color: initial; float: none; display: inline !important;&quot;&gt;bằng cách sử dụng phương pháp Trừu tượng&lt;/span&gt;" style="text;whiteSpace=wrap;html=1;fontSize=17;align=center;" parent="1" vertex="1">
          <mxGeometry x="751.5" y="-494" width="216.5" height="97" as="geometry" />
        </mxCell>
        <mxCell id="5OWTrBZKdkLz1kWFxAAw-23" value="&lt;b&gt;&lt;font style=&quot;font-size: 25px;&quot;&gt;KẾT LUẬN&lt;/font&gt;&lt;/b&gt;" style="rounded=1;whiteSpace=wrap;html=1;labelBackgroundColor=none;fontSize=17;fillColor=#dae8fc;strokeColor=#6c8ebf;" parent="1" vertex="1">
          <mxGeometry x="595" y="-317" width="156" height="90" as="geometry" />
        </mxCell>
        <mxCell id="5OWTrBZKdkLz1kWFxAAw-27" value="" style="rounded=1;whiteSpace=wrap;html=1;labelBackgroundColor=none;fontSize=25;fillColor=#ffe6cc;strokeColor=#d79b00;" parent="1" vertex="1">
          <mxGeometry x="950" y="-317" width="218" height="117" as="geometry" />
        </mxCell>
        <mxCell id="5OWTrBZKdkLz1kWFxAAw-28" value="&lt;b&gt;&lt;font style=&quot;font-size: 23px;&quot;&gt;ĐỀ XUẤT&lt;/font&gt;&lt;/b&gt;" style="text;html=1;strokeColor=none;fillColor=none;align=center;verticalAlign=middle;whiteSpace=wrap;rounded=0;labelBackgroundColor=none;fontSize=17;" parent="1" vertex="1">
          <mxGeometry x="983" y="-301" width="136" height="42" as="geometry" />
        </mxCell>
        <mxCell id="5OWTrBZKdkLz1kWFxAAw-29" value="&lt;span style=&quot;color: rgb(0, 0, 0); font-family: -apple-system, BlinkMacSystemFont, &amp;quot;Segoe UI&amp;quot;, &amp;quot;Helvetica Neue&amp;quot;, Helvetica, Arial, Ubuntu, sans-serif; font-size: 22px; font-style: normal; font-variant-ligatures: normal; font-variant-caps: normal; font-weight: 400; letter-spacing: normal; orphans: 2; text-indent: 0px; text-transform: none; widows: 2; word-spacing: 0px; -webkit-text-stroke-width: 0px; text-decoration-thickness: initial; text-decoration-style: initial; text-decoration-color: initial; float: none; display: inline !important; background-color: rgb(255, 230, 204);&quot;&gt;Bệnh nhân nên làm gì?&lt;/span&gt;" style="text;whiteSpace=wrap;html=1;fontSize=17;align=center;" parent="1" vertex="1">
          <mxGeometry x="968" y="-269" width="192" height="43" as="geometry" />
        </mxCell>
        <mxCell id="5OWTrBZKdkLz1kWFxAAw-33" value="&lt;b&gt;&lt;font style=&quot;font-size: 17px;&quot;&gt;&lt;br&gt;&lt;/font&gt;&lt;/b&gt;" style="rounded=1;whiteSpace=wrap;html=1;" parent="1" vertex="1">
          <mxGeometry x="1465.5" y="-1206" width="234" height="114" as="geometry" />
        </mxCell>
        <mxCell id="5OWTrBZKdkLz1kWFxAAw-34" style="edgeStyle=orthogonalEdgeStyle;rounded=0;orthogonalLoop=1;jettySize=auto;html=1;entryX=0;entryY=0.5;entryDx=0;entryDy=0;fontSize=17;exitX=0.5;exitY=1;exitDx=0;exitDy=0;" parent="1" source="5OWTrBZKdkLz1kWFxAAw-33" target="5OWTrBZKdkLz1kWFxAAw-39" edge="1">
          <mxGeometry relative="1" as="geometry" />
        </mxCell>
        <mxCell id="5OWTrBZKdkLz1kWFxAAw-36" value="&lt;span style=&quot;font-family: -apple-system, BlinkMacSystemFont, &amp;quot;Segoe UI&amp;quot;, &amp;quot;Helvetica Neue&amp;quot;, Helvetica, Arial, Ubuntu, sans-serif; text-align: start;&quot;&gt;&lt;font style=&quot;font-size: 19px;&quot;&gt;Triệu chứng bệnh nhân&lt;/font&gt;&lt;/span&gt;" style="text;html=1;strokeColor=none;fillColor=none;align=center;verticalAlign=middle;whiteSpace=wrap;rounded=0;fontSize=17;" parent="1" vertex="1">
          <mxGeometry x="1492.75" y="-1156" width="171" height="46" as="geometry" />
        </mxCell>
        <mxCell id="5OWTrBZKdkLz1kWFxAAw-62" style="edgeStyle=orthogonalEdgeStyle;rounded=0;orthogonalLoop=1;jettySize=auto;html=1;entryX=0;entryY=0.5;entryDx=0;entryDy=0;fontSize=19;exitX=0.5;exitY=0;exitDx=0;exitDy=0;" parent="1" source="5OWTrBZKdkLz1kWFxAAw-33" target="5OWTrBZKdkLz1kWFxAAw-41" edge="1">
          <mxGeometry relative="1" as="geometry">
            <mxPoint x="1578" y="-1242" as="sourcePoint" />
          </mxGeometry>
        </mxCell>
        <mxCell id="5OWTrBZKdkLz1kWFxAAw-37" value="&lt;b style=&quot;&quot;&gt;&lt;font style=&quot;&quot;&gt;&lt;font style=&quot;font-size: 25px;&quot;&gt;Đầu vào&lt;/font&gt;&lt;br&gt;&lt;/font&gt;&lt;/b&gt;" style="text;html=1;strokeColor=none;fillColor=none;align=center;verticalAlign=middle;whiteSpace=wrap;rounded=0;fontSize=17;" parent="1" vertex="1">
          <mxGeometry x="1492.75" y="-1196" width="170.25" height="48" as="geometry" />
        </mxCell>
        <mxCell id="5OWTrBZKdkLz1kWFxAAw-38" style="edgeStyle=orthogonalEdgeStyle;rounded=0;orthogonalLoop=1;jettySize=auto;html=1;fontSize=17;" parent="1" source="5OWTrBZKdkLz1kWFxAAw-39" target="5OWTrBZKdkLz1kWFxAAw-45" edge="1">
          <mxGeometry relative="1" as="geometry" />
        </mxCell>
        <mxCell id="5OWTrBZKdkLz1kWFxAAw-63" value="" style="edgeStyle=orthogonalEdgeStyle;rounded=0;orthogonalLoop=1;jettySize=auto;html=1;fontSize=19;" parent="1" source="5OWTrBZKdkLz1kWFxAAw-39" target="5OWTrBZKdkLz1kWFxAAw-45" edge="1">
          <mxGeometry relative="1" as="geometry" />
        </mxCell>
        <mxCell id="5OWTrBZKdkLz1kWFxAAw-39" value="&lt;b&gt;&lt;font style=&quot;font-size: 22px;&quot;&gt;SUY LUẬN&lt;/font&gt;&lt;/b&gt;" style="rounded=0;whiteSpace=wrap;html=1;fontSize=17;fillColor=#dae8fc;strokeColor=#6c8ebf;" parent="1" vertex="1">
          <mxGeometry x="1728" y="-1057" width="120" height="60" as="geometry" />
        </mxCell>
        <mxCell id="5OWTrBZKdkLz1kWFxAAw-40" style="edgeStyle=orthogonalEdgeStyle;rounded=0;orthogonalLoop=1;jettySize=auto;html=1;fontSize=17;" parent="1" source="5OWTrBZKdkLz1kWFxAAw-41" target="5OWTrBZKdkLz1kWFxAAw-47" edge="1">
          <mxGeometry relative="1" as="geometry" />
        </mxCell>
        <mxCell id="5OWTrBZKdkLz1kWFxAAw-41" value="&lt;b&gt;&lt;font style=&quot;font-size: 22px;&quot;&gt;HỌC CÓ GIÁM SÁT&lt;/font&gt;&lt;/b&gt;" style="rounded=0;whiteSpace=wrap;html=1;fontSize=17;fillColor=#f8cecc;strokeColor=#b85450;" parent="1" vertex="1">
          <mxGeometry x="1725.5" y="-1290" width="120" height="60" as="geometry" />
        </mxCell>
        <mxCell id="5OWTrBZKdkLz1kWFxAAw-42" value="&lt;span style=&quot;font-family: -apple-system, BlinkMacSystemFont, &amp;quot;Segoe UI&amp;quot;, &amp;quot;Helvetica Neue&amp;quot;, Helvetica, Arial, Ubuntu, sans-serif; text-align: start;&quot;&gt;&lt;font style=&quot;font-size: 17px;&quot;&gt;Dữ liệu đầu vào cho Suy luận&lt;/font&gt;&lt;/span&gt;" style="text;html=1;strokeColor=none;fillColor=none;align=center;verticalAlign=middle;whiteSpace=wrap;rounded=0;fontSize=17;" parent="1" vertex="1">
          <mxGeometry x="1563" y="-1016" width="141.5" height="46" as="geometry" />
        </mxCell>
        <mxCell id="5OWTrBZKdkLz1kWFxAAw-43" value="&lt;span style=&quot;font-family: -apple-system, BlinkMacSystemFont, &amp;quot;Segoe UI&amp;quot;, &amp;quot;Helvetica Neue&amp;quot;, Helvetica, Arial, Ubuntu, sans-serif; text-align: start;&quot;&gt;&lt;font style=&quot;font-size: 17px;&quot;&gt;Dữ liệu đầu vào cho Dự đoán&lt;br&gt;&lt;br&gt;&lt;/font&gt;&lt;/span&gt;" style="text;html=1;strokeColor=none;fillColor=none;align=center;verticalAlign=middle;whiteSpace=wrap;rounded=0;fontSize=17;" parent="1" vertex="1">
          <mxGeometry x="1573" y="-1307" width="150.5" height="46" as="geometry" />
        </mxCell>
        <mxCell id="5OWTrBZKdkLz1kWFxAAw-69" style="edgeStyle=orthogonalEdgeStyle;rounded=0;orthogonalLoop=1;jettySize=auto;html=1;entryX=0.5;entryY=1;entryDx=0;entryDy=0;fontSize=19;" parent="1" source="5OWTrBZKdkLz1kWFxAAw-45" target="5OWTrBZKdkLz1kWFxAAw-52" edge="1">
          <mxGeometry relative="1" as="geometry" />
        </mxCell>
        <mxCell id="5OWTrBZKdkLz1kWFxAAw-45" value="&lt;font style=&quot;font-size: 19px;&quot;&gt;Nhóm bệnh T1 hoặc NULL&lt;/font&gt;" style="rounded=0;whiteSpace=wrap;html=1;fontSize=17;" parent="1" vertex="1">
          <mxGeometry x="1927.5" y="-1071.5" width="159.5" height="89" as="geometry" />
        </mxCell>
        <mxCell id="5OWTrBZKdkLz1kWFxAAw-64" style="edgeStyle=orthogonalEdgeStyle;rounded=0;orthogonalLoop=1;jettySize=auto;html=1;entryX=0.5;entryY=0;entryDx=0;entryDy=0;fontSize=19;" parent="1" source="5OWTrBZKdkLz1kWFxAAw-47" target="5OWTrBZKdkLz1kWFxAAw-52" edge="1">
          <mxGeometry relative="1" as="geometry" />
        </mxCell>
        <mxCell id="5OWTrBZKdkLz1kWFxAAw-47" value="&lt;font style=&quot;font-size: 21px;&quot;&gt;Nhóm bệnh T2 hoặc NULL&lt;/font&gt;" style="rounded=0;whiteSpace=wrap;html=1;fontSize=17;" parent="1" vertex="1">
          <mxGeometry x="1935" y="-1304.75" width="152" height="89.5" as="geometry" />
        </mxCell>
        <mxCell id="5OWTrBZKdkLz1kWFxAAw-48" value="&lt;div style=&quot;text-align: start;&quot;&gt;&lt;font face=&quot;-apple-system, BlinkMacSystemFont, Segoe UI, Helvetica Neue, Helvetica, Arial, Ubuntu, sans-serif&quot;&gt;Kết quả đầu ra&lt;/font&gt;&lt;/div&gt;" style="text;html=1;strokeColor=none;fillColor=none;align=center;verticalAlign=middle;whiteSpace=wrap;rounded=0;fontSize=17;" parent="1" vertex="1">
          <mxGeometry x="1857.5" y="-1014" width="73.5" height="46" as="geometry" />
        </mxCell>
        <mxCell id="5OWTrBZKdkLz1kWFxAAw-49" value="&lt;div style=&quot;text-align: start;&quot;&gt;&lt;font face=&quot;-apple-system, BlinkMacSystemFont, Segoe UI, Helvetica Neue, Helvetica, Arial, Ubuntu, sans-serif&quot;&gt;Kết quả đầu ra&lt;/font&gt;&lt;/div&gt;" style="text;html=1;strokeColor=none;fillColor=none;align=center;verticalAlign=middle;whiteSpace=wrap;rounded=0;fontSize=17;" parent="1" vertex="1">
          <mxGeometry x="1864.25" y="-1302" width="73.5" height="46" as="geometry" />
        </mxCell>
        <mxCell id="5OWTrBZKdkLz1kWFxAAw-50" style="edgeStyle=orthogonalEdgeStyle;rounded=0;orthogonalLoop=1;jettySize=auto;html=1;fontSize=25;" parent="1" source="5OWTrBZKdkLz1kWFxAAw-52" target="5OWTrBZKdkLz1kWFxAAw-55" edge="1">
          <mxGeometry relative="1" as="geometry" />
        </mxCell>
        <mxCell id="5OWTrBZKdkLz1kWFxAAw-51" style="edgeStyle=orthogonalEdgeStyle;rounded=0;orthogonalLoop=1;jettySize=auto;html=1;entryX=0;entryY=0.5;entryDx=0;entryDy=0;fontSize=25;" parent="1" source="5OWTrBZKdkLz1kWFxAAw-52" target="5OWTrBZKdkLz1kWFxAAw-56" edge="1">
          <mxGeometry relative="1" as="geometry" />
        </mxCell>
        <mxCell id="5OWTrBZKdkLz1kWFxAAw-52" value="" style="rounded=0;whiteSpace=wrap;html=1;fontSize=17;" parent="1" vertex="1">
          <mxGeometry x="2133" y="-1215.25" width="236" height="161" as="geometry" />
        </mxCell>
        <mxCell id="5OWTrBZKdkLz1kWFxAAw-53" value="&lt;b&gt;XỬ LÝ 2 KẾT QUẢ&lt;/b&gt;" style="text;html=1;strokeColor=none;fillColor=none;align=center;verticalAlign=middle;whiteSpace=wrap;rounded=0;labelBackgroundColor=none;fontSize=17;" parent="1" vertex="1">
          <mxGeometry x="2169" y="-1208.25" width="173" height="57" as="geometry" />
        </mxCell>
        <mxCell id="5OWTrBZKdkLz1kWFxAAw-54" value="&lt;span style=&quot;color: rgb(0, 0, 0); font-family: -apple-system, BlinkMacSystemFont, &amp;quot;Segoe UI&amp;quot;, &amp;quot;Helvetica Neue&amp;quot;, Helvetica, Arial, Ubuntu, sans-serif; font-size: 22px; font-style: normal; font-variant-ligatures: normal; font-variant-caps: normal; font-weight: 400; letter-spacing: normal; orphans: 2; text-indent: 0px; text-transform: none; widows: 2; word-spacing: 0px; -webkit-text-stroke-width: 0px; background-color: rgb(255, 255, 255); text-decoration-thickness: initial; text-decoration-style: initial; text-decoration-color: initial; float: none; display: inline !important;&quot;&gt;bằng cách sử dụng phương pháp Trừu tượng&lt;/span&gt;" style="text;whiteSpace=wrap;html=1;fontSize=17;align=center;" parent="1" vertex="1">
          <mxGeometry x="2147.25" y="-1162" width="216.5" height="97" as="geometry" />
        </mxCell>
        <mxCell id="5OWTrBZKdkLz1kWFxAAw-55" value="&lt;b&gt;&lt;font style=&quot;font-size: 25px;&quot;&gt;KẾT LUẬN&lt;/font&gt;&lt;/b&gt;" style="rounded=1;whiteSpace=wrap;html=1;labelBackgroundColor=none;fontSize=17;fillColor=#dae8fc;strokeColor=#6c8ebf;" parent="1" vertex="1">
          <mxGeometry x="2433" y="-1065" width="198" height="117" as="geometry" />
        </mxCell>
        <mxCell id="5OWTrBZKdkLz1kWFxAAw-56" value="" style="rounded=1;whiteSpace=wrap;html=1;labelBackgroundColor=none;fontSize=25;fillColor=#ffe6cc;strokeColor=#d79b00;" parent="1" vertex="1">
          <mxGeometry x="2433" y="-1307" width="218" height="117" as="geometry" />
        </mxCell>
        <mxCell id="5OWTrBZKdkLz1kWFxAAw-57" value="&lt;b&gt;&lt;font style=&quot;font-size: 23px;&quot;&gt;ĐỀ XUẤT&lt;/font&gt;&lt;/b&gt;" style="text;html=1;strokeColor=none;fillColor=none;align=center;verticalAlign=middle;whiteSpace=wrap;rounded=0;labelBackgroundColor=none;fontSize=17;" parent="1" vertex="1">
          <mxGeometry x="2466" y="-1291" width="136" height="42" as="geometry" />
        </mxCell>
        <mxCell id="5OWTrBZKdkLz1kWFxAAw-58" value="&lt;span style=&quot;color: rgb(0, 0, 0); font-family: -apple-system, BlinkMacSystemFont, &amp;quot;Segoe UI&amp;quot;, &amp;quot;Helvetica Neue&amp;quot;, Helvetica, Arial, Ubuntu, sans-serif; font-size: 22px; font-style: normal; font-variant-ligatures: normal; font-variant-caps: normal; font-weight: 400; letter-spacing: normal; orphans: 2; text-indent: 0px; text-transform: none; widows: 2; word-spacing: 0px; -webkit-text-stroke-width: 0px; text-decoration-thickness: initial; text-decoration-style: initial; text-decoration-color: initial; float: none; display: inline !important; background-color: rgb(255, 230, 204);&quot;&gt;Bệnh nhân nên làm gì?&lt;/span&gt;" style="text;whiteSpace=wrap;html=1;fontSize=17;align=center;" parent="1" vertex="1">
          <mxGeometry x="2451" y="-1259" width="192" height="43" as="geometry" />
        </mxCell>
        <mxCell id="LgHOTTxNpD1KtQs4dJJR-1" value="Tiền xử lý dữ liệu" style="rounded=0;whiteSpace=wrap;html=1;" vertex="1" parent="1">
          <mxGeometry x="1983" y="-2227" width="114" height="58" as="geometry" />
        </mxCell>
        <mxCell id="LgHOTTxNpD1KtQs4dJJR-2" value="Xây dựng mô hình LSTM kết hợp Attention" style="rounded=0;whiteSpace=wrap;html=1;" vertex="1" parent="1">
          <mxGeometry x="2123" y="-2230" width="114" height="58" as="geometry" />
        </mxCell>
      </root>
    </mxGraphModel>
  </diagram>
</mxfile>
